<?xml version="1.0" encoding="UTF-8"?>
<svg version="1.1" xmlns="http://www.w3.org/2000/svg" width="250" height="229">
<path d="M0 0 C62.37 0 124.74 0 189 0 C189.12375 22.31625 189.2475 44.6325 189.375 67.625 C189.45693604 78.16236084 189.45693604 78.16236084 189.54052734 88.91259766 C189.56762695 97.5456543 189.56762695 97.5456543 189.57266235 101.5977478 C189.57821262 104.40492694 189.60053407 107.21141301 189.63345337 110.0184021 C189.67507345 113.61579365 189.68686363 117.21219949 189.67843366 120.80980945 C189.68101257 122.73037737 189.71295282 124.65084012 189.74657249 126.57111549 C189.68014754 135.97116946 187.16924098 142.70232961 183 151 C186.3 152.32 189.6 153.64 193 155 C192.49800802 158.72908331 191.95792977 162.36147686 191 166 C192.09699219 166.06058594 193.19398438 166.12117187 194.32421875 166.18359375 C195.77865654 166.26804498 197.23308305 166.35269066 198.6875 166.4375 C199.40873047 166.47681641 200.12996094 166.51613281 200.87304688 166.55664062 C204.66707282 166.78185678 208.28651492 167.12839305 212 168 C212 168.66 212 169.32 212 170 C213.65 170 215.3 170 217 170 C216.40518111 173.66313184 214.88699991 175.57740073 212.48828125 178.359375 C204.59768638 187.74766433 204.59768638 187.74766433 202.29052734 199.26708984 C204.16804298 205.8105976 207.28816226 211.64914991 210.671875 217.52685547 C212.34775555 220.64756686 213.23337137 223.55496261 214 227 C203.92946111 224.47428355 194.14387426 221.12386578 184.3125 217.8125 C182.6283495 217.2477656 180.94410538 216.6833103 179.25976562 216.11914062 C175.17209125 214.7493074 171.08570035 213.37570926 167 212 C167 211.01 167 210.02 167 209 C166.01 208.67 165.02 208.34 164 208 C164 205.36 164 202.72 164 200 C169.28 201.32 174.56 202.64 180 204 C180.66 200.7 181.32 197.4 182 194 C181.01 196.31 180.02 198.62 179 201 C174.99854469 199.7197115 171.17437867 198.26102195 167.33984375 196.546875 C166.29892578 196.093125 165.25800781 195.639375 164.18554688 195.171875 C162.01113284 194.21999682 159.841843 193.2563307 157.67773438 192.28125 C156.63810547 191.83265625 155.59847656 191.3840625 154.52734375 190.921875 C153.11569946 190.29684082 153.11569946 190.29684082 151.67553711 189.65917969 C148.35115794 188.84014294 146.98082156 189.41398152 144 191 C142.19151917 192.26012064 140.42368287 193.57949558 138.6875 194.9375 C133.98071772 198.56397639 129.16925536 201.98068092 124.25 205.3125 C118.55109053 209.19012268 112.95516556 213.18071785 107.4375 217.3125 C106.79522461 217.79178955 106.15294922 218.2710791 105.49121094 218.76489258 C101.18224566 222.01574249 97.05946566 225.44318688 93 229 C89.5128757 227.35482067 87.26405438 225.46020917 84.5 222.75 C77.13549465 215.93464551 68.87864846 210.48542224 60.62060547 204.81982422 C55.5958311 201.3304756 50.66580283 197.70860182 45.73608398 194.08666992 C45.03942627 193.5785376 44.34276855 193.07040527 43.625 192.546875 C43.01914063 192.10182617 42.41328125 191.65677734 41.7890625 191.19824219 C41.19867188 190.80282227 40.60828125 190.40740234 40 190 C39.40123047 189.57710693 38.80246094 189.15421387 38.18554688 188.71850586 C34.82570464 187.61394646 32.6858482 188.76969189 29.40625 189.95703125 C28.46344177 190.29065926 28.46344177 190.29065926 27.50158691 190.63102722 C25.4956847 191.34410996 23.49800707 192.0776202 21.5 192.8125 C19.50055772 193.53201998 17.49965386 194.24733742 15.49841309 194.96183777 C13.68073681 195.61335233 11.86663503 196.2748139 10.05273438 196.93676758 C7.70151268 197.75567117 5.42611061 198.46098865 3 199 C0.29937527 191.40928508 -1.70331298 183.6795741 -3.64428711 175.86889648 C-4.19101354 173.67339059 -4.74657408 171.48024212 -5.30273438 169.28710938 C-5.65417787 167.88294555 -6.00510795 166.47865311 -6.35546875 165.07421875 C-6.82956177 163.18062622 -6.82956177 163.18062622 -7.31323242 161.2487793 C-8 158 -8 158 -8 154 C-6.75336669 153.49166409 -5.50250613 152.99368855 -4.25 152.5 C-3.20585937 152.08234375 -3.20585937 152.08234375 -2.140625 151.65625 C0 151 0 151 4 151 C3.525625 149.948125 3.05125 148.89625 2.5625 147.8125 C0.38032597 142.97376628 -0.12502497 138.40264545 -0.12025452 133.12174988 C-0.12163201 131.9477447 -0.12300951 130.77373953 -0.12442875 129.56415844 C-0.12083064 128.2799466 -0.11723253 126.99573477 -0.11352539 125.67260742 C-0.1132189 124.28028777 -0.11335282 122.88796796 -0.11389065 121.49564838 C-0.11411607 117.77278398 -0.10832726 114.04995183 -0.10128021 110.32709503 C-0.0955782 106.83154704 -0.0953167 103.33600683 -0.09460449 99.8404541 C-0.08936067 89.62279848 -0.07539949 79.40514883 -0.0625 69.1875 C-0.041875 46.355625 -0.02125 23.52375 0 0 Z M189 168 C190 171 190 171 190 171 Z M188 171 C189 174 189 174 189 174 Z M187 174 C188 177 188 177 188 177 Z M186 177 C185.67 179.31 185.34 181.62 185 184 C187.30671915 181.28450846 187.30671915 181.28450846 186.625 178.8125 C186.41875 178.214375 186.2125 177.61625 186 177 Z M184 184 C185 187 185 187 185 187 Z " fill="#F6F6F7" transform="translate(33,0)"/>
<path d="M0 0 C1.15113281 -0.00515625 2.30226562 -0.0103125 3.48828125 -0.015625 C6.6875 0.25 6.6875 0.25 9.16796875 1.328125 C12.62241741 2.59207831 15.08897751 1.87466365 18.6875 1.25 C21.26403851 1.13099768 23.79928329 1.06009447 26.375 1.0625 C27.11669434 1.06185547 27.85838867 1.06121094 28.62255859 1.06054688 C40.66560556 1.16641982 52.68910235 2.28582015 64.6875 3.25 C64.75671476 15.96821256 64.55282014 28.6623495 64.1875 41.375 C64.13909668 43.12369167 64.09091867 44.87238959 64.04296875 46.62109375 C63.92706074 50.83080534 63.80815874 55.04042201 63.6875 59.25 C64.6775 59.25 65.6675 59.25 66.6875 59.25 C66.6875 60.57 66.6875 61.89 66.6875 63.25 C68.3375 63.58 69.9875 63.91 71.6875 64.25 C71.72991723 66.58294775 71.72842937 68.91702567 71.6875 71.25 C70.6875 72.25 70.6875 72.25 67.625 72.3125 C66.655625 72.291875 65.68625 72.27125 64.6875 72.25 C64.4372843 75.16634129 64.4372843 75.16634129 64.6875 78.25 C66.1725 79.24 66.1725 79.24 67.6875 80.25 C66.8125 86 66.8125 86 65.6875 88.25 C63.3775 88.25 61.0675 88.25 58.6875 88.25 C57.87782562 91.16482778 57.46904007 92.71113217 58.625 95.5625 C58.975625 96.119375 59.32625 96.67625 59.6875 97.25 C58.6975 98.57 57.7075 99.89 56.6875 101.25 C54.66927083 100.92447917 52.65104167 100.59895833 50.6328125 100.2734375 C49.99085938 100.26570313 49.34890625 100.25796875 48.6875 100.25 C48.0275 100.91 47.3675 101.57 46.6875 102.25 C47.01076553 105.84679066 47.01076553 105.84679066 47.6875 109.25 C45.4375 110.875 45.4375 110.875 42.6875 112.25 C40.5625 111.5 40.5625 111.5 38.6875 110.25 C37.2025 109.755 37.2025 109.755 35.6875 109.25 C34.6975 109.745 34.6975 109.745 33.6875 110.25 C32.95674352 112.5640622 32.28611742 114.89828869 31.6875 117.25 C28.2225 117.745 28.2225 117.745 24.6875 118.25 C24.0275 116.93 23.3675 115.61 22.6875 114.25 C21.0375 114.25 19.3875 114.25 17.6875 114.25 C17.0275 116.23 16.3675 118.21 15.6875 120.25 C13.3775 120.25 11.0675 120.25 8.6875 120.25 C7.6975 118.27 6.7075 116.29 5.6875 114.25 C3.25032742 114.52034634 3.25032742 114.52034634 0.6875 115.25 C0.0275 116.24 -0.6325 117.23 -1.3125 118.25 C-3.6225 117.92 -5.9325 117.59 -8.3125 117.25 C-8.8075 113.785 -8.8075 113.785 -9.3125 110.25 C-10.9625 109.59 -12.6125 108.93 -14.3125 108.25 C-14.9725 109.57 -15.6325 110.89 -16.3125 112.25 C-19.27425123 111.63722388 -20.69308783 110.99627478 -23.3125 109.25 C-23.72093923 106.53796348 -23.44586867 104.0062858 -23.3125 101.25 C-25.88515303 100.39244899 -27.19298595 100.22085023 -29.875 100.875 C-32.3125 101.25 -32.3125 101.25 -34.1875 100.125 C-35.3125 98.25 -35.3125 98.25 -35 95.8125 C-34.773125 94.966875 -34.54625 94.12125 -34.3125 93.25 C-34.3125 91.93 -34.3125 90.61 -34.3125 89.25 C-34.3125 88.59 -34.3125 87.93 -34.3125 87.25 C-37.7775 87.745 -37.7775 87.745 -41.3125 88.25 C-42.9375 86 -42.9375 86 -44.3125 83.25 C-43.5 80.9375 -43.5 80.9375 -42.3125 79.25 C-41.6525 79.25 -40.9925 79.25 -40.3125 79.25 C-40.8075 76.28 -40.8075 76.28 -41.3125 73.25 C-43.2925 72.92 -45.2725 72.59 -47.3125 72.25 C-47.6425 69.94 -47.9725 67.63 -48.3125 65.25 C-47.508125 64.79625 -46.70375 64.3425 -45.875 63.875 C-43.22393428 62.50274335 -43.22393428 62.50274335 -42.3125 60.25 C-41.3225 60.25 -40.3325 60.25 -39.3125 60.25 C-39.3125 41.11 -39.3125 21.97 -39.3125 2.25 C-32.0525 2.25 -24.7925 2.25 -17.3125 2.25 C-5.92822536 -0.02685493 -5.92822536 -0.02685493 0 0 Z " fill="#132C44" transform="translate(115.3125,43.75)"/>
<path d="M0 0 C62.37 0 124.74 0 189 0 C189.12375 22.31625 189.2475 44.6325 189.375 67.625 C189.45693604 78.16236084 189.45693604 78.16236084 189.54052734 88.91259766 C189.56762695 97.5456543 189.56762695 97.5456543 189.57266235 101.5977478 C189.57821262 104.40492694 189.60053407 107.21141301 189.63345337 110.0184021 C189.67507345 113.61579365 189.68686363 117.21219949 189.67843366 120.80980945 C189.68101257 122.73037737 189.71295282 124.65084012 189.74657249 126.57111549 C189.68014754 135.97116946 187.16924098 142.70232961 183 151 C186.3 152.32 189.6 153.64 193 155 C192.49800802 158.72908331 191.95792977 162.36147686 191 166 C192.09699219 166.06058594 193.19398438 166.12117187 194.32421875 166.18359375 C195.77865654 166.26804498 197.23308305 166.35269066 198.6875 166.4375 C199.40873047 166.47681641 200.12996094 166.51613281 200.87304688 166.55664062 C204.66707282 166.78185678 208.28651492 167.12839305 212 168 C212 168.66 212 169.32 212 170 C213.65 170 215.3 170 217 170 C216.40518111 173.66313184 214.88699991 175.57740073 212.48828125 178.359375 C204.59768638 187.74766433 204.59768638 187.74766433 202.29052734 199.26708984 C204.16804298 205.8105976 207.28816226 211.64914991 210.671875 217.52685547 C212.34775555 220.64756686 213.23337137 223.55496261 214 227 C203.92946111 224.47428355 194.14387426 221.12386578 184.3125 217.8125 C182.6283495 217.2477656 180.94410538 216.6833103 179.25976562 216.11914062 C175.17209125 214.7493074 171.08570035 213.37570926 167 212 C167 211.01 167 210.02 167 209 C166.01 208.67 165.02 208.34 164 208 C164 205.36 164 202.72 164 200 C169.28 201.32 174.56 202.64 180 204 C180.66 200.7 181.32 197.4 182 194 C181.01 196.31 180.02 198.62 179 201 C174.99854469 199.7197115 171.17437867 198.26102195 167.33984375 196.546875 C166.29892578 196.093125 165.25800781 195.639375 164.18554688 195.171875 C162.01113284 194.21999682 159.841843 193.2563307 157.67773438 192.28125 C156.63810547 191.83265625 155.59847656 191.3840625 154.52734375 190.921875 C153.11569946 190.29684082 153.11569946 190.29684082 151.67553711 189.65917969 C148.35115794 188.84014294 146.98082156 189.41398152 144 191 C142.19151917 192.26012064 140.42368287 193.57949558 138.6875 194.9375 C133.98071772 198.56397639 129.16925536 201.98068092 124.25 205.3125 C118.55109053 209.19012268 112.95516556 213.18071785 107.4375 217.3125 C106.79522461 217.79178955 106.15294922 218.2710791 105.49121094 218.76489258 C101.18224566 222.01574249 97.05946566 225.44318688 93 229 C89.5128757 227.35482067 87.26405438 225.46020917 84.5 222.75 C77.13549465 215.93464551 68.87864846 210.48542224 60.62060547 204.81982422 C55.5958311 201.3304756 50.66580283 197.70860182 45.73608398 194.08666992 C45.03942627 193.5785376 44.34276855 193.07040527 43.625 192.546875 C43.01914063 192.10182617 42.41328125 191.65677734 41.7890625 191.19824219 C41.19867188 190.80282227 40.60828125 190.40740234 40 190 C39.40123047 189.57710693 38.80246094 189.15421387 38.18554688 188.71850586 C34.82570464 187.61394646 32.6858482 188.76969189 29.40625 189.95703125 C28.46344177 190.29065926 28.46344177 190.29065926 27.50158691 190.63102722 C25.4956847 191.34410996 23.49800707 192.0776202 21.5 192.8125 C19.50055772 193.53201998 17.49965386 194.24733742 15.49841309 194.96183777 C13.68073681 195.61335233 11.86663503 196.2748139 10.05273438 196.93676758 C7.70151268 197.75567117 5.42611061 198.46098865 3 199 C0.29937527 191.40928508 -1.70331298 183.6795741 -3.64428711 175.86889648 C-4.19101354 173.67339059 -4.74657408 171.48024212 -5.30273438 169.28710938 C-5.65417787 167.88294555 -6.00510795 166.47865311 -6.35546875 165.07421875 C-6.82956177 163.18062622 -6.82956177 163.18062622 -7.31323242 161.2487793 C-8 158 -8 158 -8 154 C-6.75336669 153.49166409 -5.50250613 152.99368855 -4.25 152.5 C-3.20585937 152.08234375 -3.20585937 152.08234375 -2.140625 151.65625 C0 151 0 151 4 151 C3.525625 149.948125 3.05125 148.89625 2.5625 147.8125 C0.38032597 142.97376628 -0.12502497 138.40264545 -0.12025452 133.12174988 C-0.12163201 131.9477447 -0.12300951 130.77373953 -0.12442875 129.56415844 C-0.12083064 128.2799466 -0.11723253 126.99573477 -0.11352539 125.67260742 C-0.1132189 124.28028777 -0.11335282 122.88796796 -0.11389065 121.49564838 C-0.11411607 117.77278398 -0.10832726 114.04995183 -0.10128021 110.32709503 C-0.0955782 106.83154704 -0.0953167 103.33600683 -0.09460449 99.8404541 C-0.08936067 89.62279848 -0.07539949 79.40514883 -0.0625 69.1875 C-0.041875 46.355625 -0.02125 23.52375 0 0 Z M10 11 C9.896875 31.8725 9.79375 52.745 9.6875 74.25 C9.64197998 80.82325195 9.59645996 87.39650391 9.54956055 94.16894531 C9.53283106 100.09774128 9.53283106 100.09774128 9.52278137 106.02655029 C9.51513785 108.65318075 9.49953275 111.27857888 9.47212219 113.90496826 C9.43099433 117.89943499 9.43047769 121.89301723 9.43237305 125.88769531 C9.41438251 127.0436684 9.39639196 128.19964149 9.37785625 129.39064407 C9.48418581 146.23800774 19.0873112 158.61576267 30.60327148 170.02539062 C41.30143116 180.2637872 53.67279215 188.54220253 65.80517578 196.96044922 C83.51872953 209.2743323 83.51872953 209.2743323 91 217 C94.45252469 216.02897743 96.67105251 214.51226896 99.25 212.125 C103.19931788 208.55145677 107.39457067 205.48719794 111.75 202.4375 C112.47445312 201.92985107 113.19890625 201.42220215 113.9453125 200.89916992 C117.98254323 198.08151931 122.03572017 195.2875828 126.09375 192.5 C146.63197676 178.34388384 166.51805142 163.35864946 177 140 C177.5198261 138.85483524 177.5198261 138.85483524 178.05015373 137.68653584 C179.06099598 134.82747956 179.24663213 132.71295857 179.24050903 129.69120789 C179.24326403 128.64315066 179.24601902 127.59509344 179.2488575 126.51527691 C179.24166128 125.37159051 179.23446507 124.22790411 179.22705078 123.04956055 C179.22741239 121.20499 179.22741239 121.20499 179.2277813 119.3231554 C179.22653654 116.00421998 179.21666125 112.68553596 179.20256042 109.36664581 C179.19114956 106.24952091 179.19063304 103.13240209 179.18920898 100.01525879 C179.17872471 90.90598675 179.15080231 81.79674153 179.125 72.6875 C179.063125 42.1521875 179.063125 42.1521875 179 11 C123.23 11 67.46 11 10 11 Z M189 168 C190 171 190 171 190 171 Z M188 171 C189 174 189 174 189 174 Z M187 174 C188 177 188 177 188 177 Z M186 177 C185.67 179.31 185.34 181.62 185 184 C187.30671915 181.28450846 187.30671915 181.28450846 186.625 178.8125 C186.41875 178.214375 186.2125 177.61625 186 177 Z M184 184 C185 187 185 187 185 187 Z " fill="#112941" transform="translate(33,0)"/>
<path d="M0 0 C2.37507855 -0.02719556 4.74983964 -0.04693247 7.125 -0.0625 C7.79015625 -0.07087891 8.4553125 -0.07925781 9.140625 -0.08789062 C12.25956268 -0.10317954 15.16580565 0.02896605 18.2421875 0.56640625 C21.06464665 1.01016399 22.30986566 0.73777938 25 0 C27.51398694 -0.12628673 29.985699 -0.18976565 32.5 -0.1875 C33.25522949 -0.18814453 34.01045898 -0.18878906 34.78857422 -0.18945312 C46.88144195 -0.08489699 58.95195493 1.03183053 71 2 C71.06921476 14.71821256 70.86532014 27.4123495 70.5 40.125 C70.45159668 41.87369167 70.40341867 43.62238959 70.35546875 45.37109375 C70.23956074 49.58080534 70.12065874 53.79042201 70 58 C70.99 58 71.98 58 73 58 C73 59.32 73 60.64 73 62 C74.65 62.33 76.3 62.66 78 63 C78.04241723 65.33294775 78.04092937 67.66702567 78 70 C77 71 77 71 73.9375 71.0625 C72.968125 71.041875 71.99875 71.02125 71 71 C70.7497843 73.91634129 70.7497843 73.91634129 71 77 C72.485 77.99 72.485 77.99 74 79 C73.125 84.75 73.125 84.75 72 87 C69.69 87 67.38 87 65 87 C64.19032562 89.91482778 63.78154007 91.46113217 64.9375 94.3125 C65.288125 94.869375 65.63875 95.42625 66 96 C65.01 97.32 64.02 98.64 63 100 C60.98177083 99.67447917 58.96354167 99.34895833 56.9453125 99.0234375 C56.30335938 99.01570313 55.66140625 99.00796875 55 99 C54.34 99.66 53.68 100.32 53 101 C53.32326553 104.59679066 53.32326553 104.59679066 54 108 C51.75 109.625 51.75 109.625 49 111 C46.875 110.25 46.875 110.25 45 109 C43.515 108.505 43.515 108.505 42 108 C41.01 108.495 41.01 108.495 40 109 C39.26924352 111.3140622 38.59861742 113.64828869 38 116 C34.535 116.495 34.535 116.495 31 117 C30.34 115.68 29.68 114.36 29 113 C27.35 113 25.7 113 24 113 C23.34 114.98 22.68 116.96 22 119 C19.69 119 17.38 119 15 119 C14.01 117.02 13.02 115.04 12 113 C9.56282742 113.27034634 9.56282742 113.27034634 7 114 C6.34 114.99 5.68 115.98 5 117 C1.535 116.505 1.535 116.505 -2 116 C-2.33 113.69 -2.66 111.38 -3 109 C-4.65 108.34 -6.3 107.68 -8 107 C-8.66 108.32 -9.32 109.64 -10 111 C-12.96175123 110.38722388 -14.38058783 109.74627478 -17 108 C-17.40843923 105.28796348 -17.13336867 102.7562858 -17 100 C-19.57265303 99.14244899 -20.88048595 98.97085023 -23.5625 99.625 C-26 100 -26 100 -27.875 98.875 C-29 97 -29 97 -28.75 94.625 C-28.5025 93.75875 -28.255 92.8925 -28 92 C-27.25019468 88.34469909 -26.59956214 84.68302456 -26 81 C-25.67 81 -25.34 81 -25 81 C-24.34 83.97 -23.68 86.94 -23 90 C-21.00045254 90.04254356 -18.99958364 90.04080783 -17 90 C-15.50256881 88.50256881 -15.66797307 87.01175761 -15.4375 84.9375 C-15.293125 83.638125 -15.14875 82.33875 -15 81 C-14.67 81 -14.34 81 -14 81 C-14 84.3 -14 87.6 -14 91 C-13.01 91 -12.02 91 -11 91 C-11 89.02 -11 87.04 -11 85 C-9.62437146 86.28965176 -8.29233607 87.62689293 -7 89 C-7 89.66 -7 90.32 -7 91 C-6.01 91 -5.02 91 -4 91 C-4 87.7 -4 84.4 -4 81 C-3.34 81 -2.68 81 -2 81 C-2 84.3 -2 87.6 -2 91 C-1.01 91 -0.02 91 1 91 C1 88.36 1 85.72 1 83 C3.89932357 85.39509338 4.50168276 87.31245243 5 91 C5.99 91 6.98 91 8 91 C8.185625 89.9171875 8.185625 89.9171875 8.375 88.8125 C8.9904931 86.04278106 9.88444374 83.6029646 11 81 C10.34 81 9.68 81 9 81 C8.34 83.31 7.68 85.62 7 88 C4 84.375 4 84.375 4 81 C1.69 80.34 -0.62 79.68 -3 79 C-3 78.34 -3 77.68 -3 77 C4.9732834 74.66364254 13.87856324 76.01344803 22 77 C21.01 77.495 21.01 77.495 20 78 C19.505 79.485 19.505 79.485 19 81 C16.69 81 14.38 81 12 81 C12 84.3 12 87.6 12 91 C12.99 90.67 13.98 90.34 15 90 C14.67 89.01 14.34 88.02 14 87 C15.65 87 17.3 87 19 87 C19 86.34 19 85.68 19 85 C17.68 85 16.36 85 15 85 C15 84.34 15 83.68 15 83 C16.65 83 18.3 83 20 83 C20.33 82.34 20.66 81.68 21 81 C21.495 86.445 21.495 86.445 22 92 C22.99 92 23.98 92 25 92 C25.33 91.34 25.66 90.68 26 90 C26.33 90.33 26.66 90.66 27 91 C29.02408755 90.90997602 31.04544287 90.75358962 33.0625 90.5625 C34.71958984 90.40974609 34.71958984 90.40974609 36.41015625 90.25390625 C37.26480469 90.17011719 38.11945313 90.08632812 39 90 C39 89.01 39 88.02 39 87 C37.02 86.01 37.02 86.01 35 85 C35 84.34 35 83.68 35 83 C36.32 83 37.64 83 39 83 C39 82.34 39 81.68 39 81 C38.19175781 81.01160156 37.38351563 81.02320312 36.55078125 81.03515625 C35.48214844 81.04417969 34.41351563 81.05320312 33.3125 81.0625 C31.72888672 81.07990234 31.72888672 81.07990234 30.11328125 81.09765625 C27.27589738 81.00865425 24.7561081 80.64939838 22 80 C22.66 79.67 23.32 79.34 24 79 C24 78.34 24 77.68 24 77 C24.66 77 25.32 77 26 77 C26.495 75.515 26.495 75.515 27 74 C27.33 74.66 27.66 75.32 28 76 C28.99 76 29.98 76 31 76 C31 75.34 31 74.68 31 74 C28.69 73.34 26.38 72.68 24 72 C24 73.32 24 74.64 24 76 C23.34 76 22.68 76 22 76 C22 75.01 22 74.02 22 73 C21.38125 72.731875 20.7625 72.46375 20.125 72.1875 C18 71 18 71 16 68 C16.71027344 67.79503906 17.42054687 67.59007813 18.15234375 67.37890625 C19.07144531 67.10949219 19.99054688 66.84007813 20.9375 66.5625 C21.85402344 66.29566406 22.77054688 66.02882813 23.71484375 65.75390625 C25.9402493 65.20973949 25.9402493 65.20973949 27 64 C35.49124589 63.35031818 44.14863318 64.39929672 52.625 65 C54.02471805 65.09666651 55.42445755 65.19302288 56.82421875 65.2890625 C60.21636863 65.52300387 63.60827017 65.76005825 67 66 C66.99476318 65.32461182 66.98952637 64.64922363 66.98413086 63.95336914 C66.85409552 44.27852869 67.30182737 24.66024424 68 5 C67.0502832 5.01160156 66.10056641 5.02320313 65.12207031 5.03515625 C63.24406738 5.04869141 63.24406738 5.04869141 61.328125 5.0625 C60.0896582 5.07410156 58.85119141 5.08570313 57.57519531 5.09765625 C54.47427728 5.01295486 51.76278641 4.68557067 48.75 4 C43.6669543 2.93628341 38.73623894 2.77472516 33.5625 2.75 C32.78036133 2.74097656 31.99822266 2.73195312 31.19238281 2.72265625 C27.25094763 2.74317565 24.39823242 2.96924906 21 5 C18.39754392 4.73975439 16.50843114 4.2902107 14.234375 2.9921875 C11.37530987 1.72260263 8.86404978 1.5780902 5.75 1.375 C4.67234375 1.30023438 3.5946875 1.22546875 2.484375 1.1484375 C1.25460938 1.07496094 1.25460938 1.07496094 0 1 C0 0.67 0 0.34 0 0 Z " fill="#132C44" transform="translate(109,45)"/>
<path d="M0 0 C1.20914063 0.01804688 2.41828125 0.03609375 3.6640625 0.0546875 C4.55867188 0.07789063 5.45328125 0.10109375 6.375 0.125 C6.375 1.115 6.375 2.105 6.375 3.125 C9.79432656 4.78132728 9.79432656 4.78132728 13.5 4.8125 C14.428125 4.4721875 14.428125 4.4721875 15.375 4.125 C19.22108689 2.84297104 22.86661364 2.93382333 26.875 2.9375 C28.09558105 2.93762085 28.09558105 2.93762085 29.34082031 2.93774414 C34.53443537 2.98678921 39.37779695 3.43931322 44.45507812 4.59106445 C47.87304292 5.21607189 51.23636863 5.46610768 54.703125 5.69140625 C56.58112793 5.8162439 56.58112793 5.8162439 58.49707031 5.94360352 C59.44678711 6.00346436 60.39650391 6.0633252 61.375 6.125 C61.5000153 26.48903082 61.28766672 46.77690139 60.375 67.125 C43.11279247 67.29762208 43.11279247 67.29762208 35.875 66.625 C26.48541271 65.75727262 19.86129353 65.53338224 11.375 70.125 C12.035 70.723125 12.695 71.32125 13.375 71.9375 C15.375 74.125 15.375 74.125 15.375 77.125 C16.035 77.125 16.695 77.125 17.375 77.125 C17.375 75.805 17.375 74.485 17.375 73.125 C19.685 73.455 21.995 73.785 24.375 74.125 C24.375 75.445 24.375 76.765 24.375 78.125 C23.776875 77.939375 23.17875 77.75375 22.5625 77.5625 C20.21091238 76.90406313 20.21091238 76.90406313 17.375 78.125 C17.375 78.785 17.375 79.445 17.375 80.125 C20.53745541 81.1791518 23.24448218 81.43775672 26.5625 81.6875 C27.64917969 81.77128906 28.73585938 81.85507813 29.85546875 81.94140625 C30.68691406 82.00199219 31.51835937 82.06257813 32.375 82.125 C32.375 82.785 32.375 83.445 32.375 84.125 C31.055 84.125 29.735 84.125 28.375 84.125 C28.375 84.785 28.375 85.445 28.375 86.125 C30.025 86.785 31.675 87.445 33.375 88.125 C32.88 90.105 32.88 90.105 32.375 92.125 C30.41675306 92.29267864 28.45839945 92.45911205 26.5 92.625 C25.40945312 92.7178125 24.31890625 92.810625 23.1953125 92.90625 C20.5603536 93.11062354 18.01817153 93.125 15.375 93.125 C14.715 90.155 14.055 87.185 13.375 84.125 C11.725 84.125 10.075 84.125 8.375 84.125 C8.375 84.785 8.375 85.445 8.375 86.125 C9.695 86.125 11.015 86.125 12.375 86.125 C12.375 86.785 12.375 87.445 12.375 88.125 C10.725 88.125 9.075 88.125 7.375 88.125 C7.705 88.785 8.035 89.445 8.375 90.125 C10.90233235 90.78055119 10.90233235 90.78055119 13.375 91.125 C13.375 91.455 13.375 91.785 13.375 92.125 C10.735 92.125 8.095 92.125 5.375 92.125 C5.375 88.825 5.375 85.525 5.375 82.125 C6.509375 82.00125 7.64375 81.8775 8.8125 81.75 C10.5759375 81.440625 10.5759375 81.440625 12.375 81.125 C12.705 80.465 13.035 79.805 13.375 79.125 C5.68895526 78.15340067 -1.88363399 78.01579578 -9.625 78.125 C-9.295 78.785 -8.965 79.445 -8.625 80.125 C-7.655625 80.393125 -6.68625 80.66125 -5.6875 80.9375 C-2.625 82.125 -2.625 82.125 -1.25 84.75 C-1.04375 85.53375 -0.8375 86.3175 -0.625 87.125 C1.31298263 84.35239701 1.31298263 84.35239701 2.375 82.125 C3.035 82.125 3.695 82.125 4.375 82.125 C3.385 85.425 2.395 88.725 1.375 92.125 C0.385 92.125 -0.605 92.125 -1.625 92.125 C-2.615 89.815 -3.605 87.505 -4.625 85.125 C-4.955 87.435 -5.285 89.745 -5.625 92.125 C-6.615 92.125 -7.605 92.125 -8.625 92.125 C-8.625 88.825 -8.625 85.525 -8.625 82.125 C-9.285 82.125 -9.945 82.125 -10.625 82.125 C-10.625 85.425 -10.625 88.725 -10.625 92.125 C-11.615 92.125 -12.605 92.125 -13.625 92.125 C-15.3125 90.125 -15.3125 90.125 -16.625 88.125 C-16.955 89.445 -17.285 90.765 -17.625 92.125 C-18.615 92.125 -19.605 92.125 -20.625 92.125 C-21.12 91.135 -21.12 91.135 -21.625 90.125 C-22.615 91.115 -22.615 91.115 -23.625 92.125 C-26.5625 92.5 -26.5625 92.5 -29.625 92.125 C-31.5 90.125 -31.5 90.125 -32.625 88.125 C-33.615 88.62 -33.615 88.62 -34.625 89.125 C-34.625 88.465 -34.625 87.805 -34.625 87.125 C-38.09 87.62 -38.09 87.62 -41.625 88.125 C-43.25 85.875 -43.25 85.875 -44.625 83.125 C-43.8125 80.8125 -43.8125 80.8125 -42.625 79.125 C-41.965 79.125 -41.305 79.125 -40.625 79.125 C-41.12 76.155 -41.12 76.155 -41.625 73.125 C-43.605 72.795 -45.585 72.465 -47.625 72.125 C-47.955 69.815 -48.285 67.505 -48.625 65.125 C-47.820625 64.67125 -47.01625 64.2175 -46.1875 63.75 C-43.53643428 62.37774335 -43.53643428 62.37774335 -42.625 60.125 C-41.635 60.125 -40.645 60.125 -39.625 60.125 C-39.625 40.985 -39.625 21.845 -39.625 2.125 C-32.365 2.125 -25.105 2.125 -17.625 2.125 C-6.375 -0.125 -6.375 -0.125 0 0 Z M-31.625 12.125 C-31.625 29.615 -31.625 47.105 -31.625 65.125 C-18.59813012 64.4229915 -18.59813012 64.4229915 -5.625 63.125 C-3.73107994 63.01937281 -1.83431274 62.95134535 0.0625 62.9375 C0.95324219 62.92332031 1.84398437 62.90914062 2.76171875 62.89453125 C5.62551783 63.1470935 7.72950871 64.0423567 10.375 65.125 C13.3689548 64.83147502 15.68449055 64.47025472 18.375 63.125 C24.97351901 62.91696787 31.38133122 63.42238379 37.9375 64.125 C39.73006981 64.31627638 41.52304068 64.50383418 43.31640625 64.6875 C44.09701416 64.77128906 44.87762207 64.85507813 45.68188477 64.94140625 C49.23852692 65.18386794 52.81010293 65.125 56.375 65.125 C56.375 47.635 56.375 30.145 56.375 12.125 C47.795 10.805 39.215 9.485 30.375 8.125 C29.385 7.795 28.395 7.465 27.375 7.125 C7.03386345 5.57224148 -11.6828705 8.34450152 -31.625 12.125 Z " fill="#1E3046" transform="translate(115.625,43.875)"/>
<path d="M0 0 C0.66 0.33 1.32 0.66 2 1 C2.82202148 3.60107422 2.82202148 3.60107422 3.62109375 7.0546875 C4.06485352 8.93800781 4.06485352 8.93800781 4.51757812 10.859375 C4.82460615 12.19782786 5.1312446 13.53637014 5.4375 14.875 C6.0372081 17.45647809 6.64164577 20.03681087 7.24609375 22.6171875 C7.53726074 23.86209961 7.82842773 25.10701172 8.12841797 26.38964844 C9.31153111 31.29045436 10.62600196 36.14962898 12 41 C12.8470752 40.6918335 13.69415039 40.38366699 14.56689453 40.06616211 C17.7276436 38.92378265 20.89235859 37.79410674 24.06054688 36.67260742 C25.42789039 36.18572576 26.79349229 35.69392274 28.15722656 35.19702148 C30.12381959 34.48144001 32.09610607 33.78410097 34.0703125 33.08984375 C35.25383301 32.66566162 36.43735352 32.24147949 37.65673828 31.80444336 C41.26214025 30.93692478 43.44474421 31.02995377 47 32 C49.8671875 33.8984375 49.8671875 33.8984375 52.875 36.375 C57.7755497 40.31948451 62.78369717 43.9838626 68 47.5 C77.71465967 54.08863802 87.39447459 60.99486009 96 69 C96 69.66 96 70.32 96 71 C96.87785156 70.25169922 96.87785156 70.25169922 97.7734375 69.48828125 C109.79451053 59.43462107 122.66866156 50.47464806 135.64086914 41.69873047 C139.69231984 38.94903543 143.55936783 36.08387831 147.2265625 32.828125 C150.14314602 31.46619613 151.88976124 32.17455029 155 33 C158.77529289 34.4142578 162.48040066 35.97928491 166.1875 37.5625 C168.15811125 38.40195237 170.13068732 39.23681162 172.10546875 40.06640625 C172.97324951 40.43709229 173.84103027 40.80777832 174.73510742 41.18969727 C177.06986473 42.16842857 177.06986473 42.16842857 180 42 C180.37809814 40.79351807 180.75619629 39.58703613 181.14575195 38.34399414 C182.54808948 33.88043818 183.96628818 29.42205818 185.3894043 24.96508789 C186.00379258 23.03320154 186.61383607 21.09992795 187.21948242 19.1652832 C188.0894274 16.38899927 188.97473748 13.61803503 189.86328125 10.84765625 C190.13215652 9.97786636 190.4010318 9.10807648 190.67805481 8.21192932 C190.93809799 7.41117477 191.19814117 6.61042023 191.46606445 5.78540039 C191.69034622 5.0770253 191.91462799 4.36865021 192.14570618 3.6388092 C193 2 193 2 196 1 C196.99 1.495 196.99 1.495 198 2 C197.49800802 5.72908331 196.95792977 9.36147686 196 13 C197.09699219 13.06058594 198.19398438 13.12117187 199.32421875 13.18359375 C200.77865654 13.26804498 202.23308305 13.35269066 203.6875 13.4375 C204.40873047 13.47681641 205.12996094 13.51613281 205.87304688 13.55664062 C209.66707282 13.78185678 213.28651492 14.12839305 217 15 C217 15.66 217 16.32 217 17 C218.65 17 220.3 17 222 17 C221.40518111 20.66313184 219.88699991 22.57740073 217.48828125 25.359375 C209.59768638 34.74766433 209.59768638 34.74766433 207.29052734 46.26708984 C209.16804298 52.8105976 212.28816226 58.64914991 215.671875 64.52685547 C217.34775555 67.64756686 218.23337137 70.55496261 219 74 C208.92946111 71.47428355 199.14387426 68.12386578 189.3125 64.8125 C187.6283495 64.2477656 185.94410538 63.6833103 184.25976562 63.11914062 C180.17209125 61.7493074 176.08570035 60.37570926 172 59 C172 58.01 172 57.02 172 56 C171.01 55.67 170.02 55.34 169 55 C169 52.36 169 49.72 169 47 C174.28 48.32 179.56 49.64 185 51 C185.66 47.7 186.32 44.4 187 41 C186.01 43.31 185.02 45.62 184 48 C179.99854469 46.7197115 176.17437867 45.26102195 172.33984375 43.546875 C170.7784668 42.86625 170.7784668 42.86625 169.18554688 42.171875 C167.01113284 41.21999682 164.841843 40.2563307 162.67773438 39.28125 C161.63810547 38.83265625 160.59847656 38.3840625 159.52734375 37.921875 C158.58624756 37.50518555 157.64515137 37.08849609 156.67553711 36.65917969 C153.35115794 35.84014294 151.98082156 36.41398152 149 38 C147.19151917 39.26012064 145.42368287 40.57949558 143.6875 41.9375 C138.98071772 45.56397639 134.16925536 48.98068092 129.25 52.3125 C123.55109053 56.19012268 117.95516556 60.18071785 112.4375 64.3125 C111.79522461 64.79178955 111.15294922 65.2710791 110.49121094 65.76489258 C106.18224566 69.01574249 102.05946566 72.44318688 98 76 C94.5128757 74.35482067 92.26405438 72.46020917 89.5 69.75 C82.13549465 62.93464551 73.87864846 57.48542224 65.62060547 51.81982422 C60.5958311 48.3304756 55.66580283 44.70860182 50.73608398 41.08666992 C50.03942627 40.5785376 49.34276855 40.07040527 48.625 39.546875 C48.01914063 39.10182617 47.41328125 38.65677734 46.7890625 38.19824219 C46.19867188 37.80282227 45.60828125 37.40740234 45 37 C44.40123047 36.57710693 43.80246094 36.15421387 43.18554688 35.71850586 C39.82570464 34.61394646 37.6858482 35.76969189 34.40625 36.95703125 C33.77771118 37.17944992 33.14917236 37.40186859 32.50158691 37.63102722 C30.4956847 38.34410996 28.49800707 39.0776202 26.5 39.8125 C24.50055772 40.53201998 22.49965386 41.24733742 20.49841309 41.96183777 C18.68073681 42.61335233 16.86663503 43.2748139 15.05273438 43.93676758 C12.70151268 44.75567117 10.42611061 45.46098865 8 46 C5.29937527 38.40928508 3.29668702 30.6795741 1.35571289 22.86889648 C0.80898646 20.67339059 0.25342592 18.48024212 -0.30273438 16.28710938 C-0.65417787 14.88294555 -1.00510795 13.47865311 -1.35546875 12.07421875 C-1.67153076 10.81182373 -1.98759277 9.54942871 -2.31323242 8.2487793 C-3 5 -3 5 -3 1 C-2.01 0.67 -1.02 0.34 0 0 Z M194 15 C195 18 195 18 195 18 Z M193 18 C194 21 194 21 194 21 Z M192 21 C193 24 193 24 193 24 Z M191 24 C190.67 26.31 190.34 28.62 190 31 C192.30671915 28.28450846 192.30671915 28.28450846 191.625 25.8125 C191.41875 25.214375 191.2125 24.61625 191 24 Z M189 31 C190 34 190 34 190 34 Z " fill="#112A42" transform="translate(28,153)"/>
<path d="M0 0 C62.37 0 124.74 0 189 0 C189.12375 22.31625 189.2475 44.6325 189.375 67.625 C189.45693604 78.16236084 189.45693604 78.16236084 189.54052734 88.91259766 C189.56762695 97.5456543 189.56762695 97.5456543 189.57266235 101.5977478 C189.57821262 104.40492694 189.60053407 107.21141301 189.63345337 110.0184021 C189.67507345 113.61579365 189.68686363 117.21219949 189.67843366 120.80980945 C189.68101257 122.73037737 189.71295282 124.65084012 189.74657249 126.57111549 C189.68236935 135.65675219 187.65118247 143.17074258 183 151 C182.01 151.33 181.02 151.66 180 152 C179.34 151.67 178.68 151.34 178 151 C178.45636536 149.603522 178.91519488 148.2078492 179.375 146.8125 C179.63023437 146.03519531 179.88546875 145.25789062 180.1484375 144.45703125 C181 142 181 142 182.0358181 139.69721699 C183.08935153 136.75004668 183.26064722 134.50996207 183.2784729 131.38749695 C183.28962442 130.27226748 183.30077595 129.15703802 183.3122654 128.00801373 C183.31443754 126.78938043 183.31660969 125.57074713 183.31884766 124.31518555 C183.32900091 123.00617436 183.33915417 121.69716318 183.3496151 120.34848499 C183.37683225 116.81418594 183.39225176 113.2799284 183.40519714 109.74555206 C183.41914994 106.42655213 183.44378308 103.10763865 183.4675293 99.78869629 C183.5307292 90.08836139 183.57682383 80.38792115 183.625 70.6875 C183.810625 38.1721875 183.810625 38.1721875 184 5 C124.6 5 65.2 5 4 5 C4.103125 26.883125 4.20625 48.76625 4.3125 71.3125 C4.33739502 78.20809814 4.36229004 85.10369629 4.38793945 92.20825195 C4.42452745 98.41916372 4.42452745 98.41916372 4.4650116 104.63005066 C4.48110391 107.38468561 4.4925355 110.13895741 4.49711609 112.89360046 C4.50325228 116.4188554 4.52374311 119.94376542 4.55416143 123.4688915 C4.5669949 125.35742833 4.56552093 127.2460463 4.56330585 129.13462543 C4.6445211 136.5261637 5.66800906 142.97947185 8 150 C6.35 149.67 4.7 149.34 3 149 C-0.04335103 140.9744671 -0.41322221 133.62667742 -0.34057617 125.10498047 C-0.33965528 123.71205228 -0.34006085 122.3191227 -0.34167194 120.92619514 C-0.34234421 117.22423968 -0.32506356 113.52258011 -0.30384064 109.82069397 C-0.2866488 106.33626459 -0.28594551 102.85190411 -0.28381348 99.36743164 C-0.26812408 89.20324917 -0.22624027 79.03912075 -0.1875 68.875 C-0.125625 46.14625 -0.06375 23.4175 0 0 Z " fill="#F6F7F8" transform="translate(33,0)"/>
<path d="M0 0 C1.10693278 3.60332284 2.21002018 7.20781247 3.3125 10.8125 C3.7755957 12.31973633 3.7755957 12.31973633 4.24804688 13.85742188 C5.78715786 18.8959852 7.29636209 23.94218122 8.73046875 29.01171875 C8.97563232 29.87627686 9.2207959 30.74083496 9.47338867 31.6315918 C10 34 10 34 10 38 C11.58941406 37.45859375 11.58941406 37.45859375 13.2109375 36.90625 C14.59890499 36.43734207 15.98692875 35.96860069 17.375 35.5 C18.07367188 35.26152344 18.77234375 35.02304688 19.4921875 34.77734375 C24.7734375 33 24.7734375 33 27 33 C27.495 37.95 27.495 37.95 28 43 C27.01 43.495 27.01 43.495 26 44 C25.67 44.99 25.34 45.98 25 47 C23.32373047 47.79614258 23.32373047 47.79614258 21.1171875 48.39453125 C20.29017334 48.62503174 19.46315918 48.85553223 18.61108398 49.09301758 C17.70817627 49.33044678 16.80526855 49.56787598 15.875 49.8125 C14.94953369 50.06604248 14.02406738 50.31958496 13.07055664 50.58081055 C10.05093944 51.40259711 7.02636997 52.20346208 4 53 C2.9495752 53.2784375 1.89915039 53.556875 0.81689453 53.84375 C-7.11014936 55.94176376 -15.04281018 58.01895217 -23 60 C-22.40062299 56.07060303 -21.17709125 53.13226494 -19.28515625 49.6484375 C-18.76501953 48.63136719 -18.24488281 47.61429688 -17.70898438 46.56640625 C-16.61501193 44.44594247 -15.48996969 42.34121081 -14.33398438 40.25390625 C-11.315197 34.36322111 -11.315197 34.36322111 -11.86914062 28.00292969 C-13.39929855 25.1530348 -15.07966809 22.60042219 -17 20 C-17.78145354 18.80391303 -18.56058709 17.60630226 -19.3359375 16.40625 C-20.71026205 14.44744259 -22.08527675 12.48911923 -23.4609375 10.53125 C-25 8 -25 8 -25 5 C-23.35 5 -21.7 5 -20 5 C-20 4.34 -20 3.68 -20 3 C-17.79344925 2.49219106 -15.58466395 1.99408635 -13.375 1.5 C-11.53035156 1.08234375 -11.53035156 1.08234375 -9.6484375 0.65625 C-6.32847772 0.05908379 -3.36091549 -0.12409534 0 0 Z " fill="#102941" transform="translate(25,165)"/>
<path d="M0 0 C2.37507855 -0.02719556 4.74983964 -0.04693247 7.125 -0.0625 C8.12273437 -0.07506836 8.12273437 -0.07506836 9.140625 -0.08789062 C12.25956268 -0.10317954 15.16580565 0.02896605 18.2421875 0.56640625 C21.06464665 1.01016399 22.30986566 0.73777938 25 0 C27.51398694 -0.12628673 29.985699 -0.18976565 32.5 -0.1875 C33.25522949 -0.18814453 34.01045898 -0.18878906 34.78857422 -0.18945312 C46.88144195 -0.08489699 58.95195493 1.03183053 71 2 C71.06921476 14.71821256 70.86532014 27.4123495 70.5 40.125 C70.45159668 41.87369167 70.40341867 43.62238959 70.35546875 45.37109375 C70.23956074 49.58080534 70.12065874 53.79042201 70 58 C70.99 58 71.98 58 73 58 C73 59.32 73 60.64 73 62 C74.65 62.33 76.3 62.66 78 63 C78.04241723 65.33294775 78.04092937 67.66702567 78 70 C77 71 77 71 73.9375 71.0625 C72.968125 71.041875 71.99875 71.02125 71 71 C70.7497843 73.91634129 70.7497843 73.91634129 71 77 C72.485 77.99 72.485 77.99 74 79 C73.125 84.75 73.125 84.75 72 87 C69.69 87 67.38 87 65 87 C64.19032562 89.91482778 63.78154007 91.46113217 64.9375 94.3125 C65.288125 94.869375 65.63875 95.42625 66 96 C65.01 96.495 65.01 96.495 64 97 C63.34 95.02 62.68 93.04 62 91 C61.01 91.33 60.02 91.66 59 92 C57 91 57 91 55.625 87.5 C54.42410267 83.89357557 54.42410267 83.89357557 51.8125 83.0625 C51.214375 83.041875 50.61625 83.02125 50 83 C50 85.64 50 88.28 50 91 C48.02 91 46.04 91 44 91 C43.95101562 90.36191406 43.90203125 89.72382813 43.8515625 89.06640625 C43.77679688 88.24011719 43.70203125 87.41382813 43.625 86.5625 C43.52058594 85.32693359 43.52058594 85.32693359 43.4140625 84.06640625 C43.20910156 83.04353516 43.20910156 83.04353516 43 82 C42.01 81.505 42.01 81.505 41 81 C41 80.34 41 79.68 41 79 C40.175 79.33 39.35 79.66 38.5 80 C32.91678029 81.59520563 27.66151641 81.4153791 22 80 C22.99 79.505 22.99 79.505 24 79 C24 78.34 24 77.68 24 77 C24.66 77 25.32 77 26 77 C26.495 75.515 26.495 75.515 27 74 C27.495 74.99 27.495 74.99 28 76 C28.99 76 29.98 76 31 76 C31 75.34 31 74.68 31 74 C28.69 73.34 26.38 72.68 24 72 C24 73.32 24 74.64 24 76 C23.34 76 22.68 76 22 76 C22 75.01 22 74.02 22 73 C21.071875 72.5978125 21.071875 72.5978125 20.125 72.1875 C18 71 18 71 16 68 C16.71027344 67.79503906 17.42054687 67.59007813 18.15234375 67.37890625 C19.07144531 67.10949219 19.99054688 66.84007813 20.9375 66.5625 C21.85402344 66.29566406 22.77054688 66.02882813 23.71484375 65.75390625 C25.9402493 65.20973949 25.9402493 65.20973949 27 64 C35.49124589 63.35031818 44.14863318 64.39929672 52.625 65 C54.02471805 65.09666651 55.42445755 65.19302288 56.82421875 65.2890625 C60.21636863 65.52300387 63.60827017 65.76005825 67 66 C66.99476318 65.32461182 66.98952637 64.64922363 66.98413086 63.95336914 C66.85409552 44.27852869 67.30182737 24.66024424 68 5 C67.0502832 5.01160156 66.10056641 5.02320313 65.12207031 5.03515625 C63.24406738 5.04869141 63.24406738 5.04869141 61.328125 5.0625 C60.0896582 5.07410156 58.85119141 5.08570313 57.57519531 5.09765625 C54.47427728 5.01295486 51.76278641 4.68557067 48.75 4 C43.6669543 2.93628341 38.73623894 2.77472516 33.5625 2.75 C32.78036133 2.74097656 31.99822266 2.73195312 31.19238281 2.72265625 C27.25094763 2.74317565 24.39823242 2.96924906 21 5 C18.39754392 4.73975439 16.50843114 4.2902107 14.234375 2.9921875 C11.37530987 1.72260263 8.86404978 1.5780902 5.75 1.375 C4.67234375 1.30023438 3.5946875 1.22546875 2.484375 1.1484375 C1.25460938 1.07496094 1.25460938 1.07496094 0 1 C0 0.67 0 0.34 0 0 Z " fill="#142A41" transform="translate(109,45)"/>
<path d="M0 0 C1.18722656 -0.01417969 2.37445313 -0.02835938 3.59765625 -0.04296875 C6.84918825 0.18140597 8.98805599 0.88827777 11.9375 2.1875 C14.0557079 1.94980794 14.0557079 1.94980794 15.9375 1.1875 C19.78358689 -0.09452896 23.42911364 -0.00367667 27.4375 0 C28.65808105 0.00012085 28.65808105 0.00012085 29.90332031 0.00024414 C35.09693537 0.04928921 39.94029695 0.50181322 45.01757812 1.65356445 C48.43554292 2.27857189 51.79886863 2.52860768 55.265625 2.75390625 C57.14362793 2.8787439 57.14362793 2.8787439 59.05957031 3.00610352 C60.00928711 3.06596436 60.95900391 3.1258252 61.9375 3.1875 C62.0625153 23.55153082 61.85016672 43.83940139 60.9375 64.1875 C51.77974183 64.27907758 42.74361503 64.28142773 33.6171875 63.421875 C26.25035073 62.77754525 21.59593422 62.78430029 14.9375 66.1875 C11.25 66.0625 11.25 66.0625 7.9375 65.1875 C7.48761719 64.65769531 7.03773437 64.12789062 6.57421875 63.58203125 C4.98941613 61.90545088 4.98941613 61.90545088 2.53125 62.33203125 C0.99984375 62.66267578 0.99984375 62.66267578 -0.5625 63 C-12.28857175 64.6382012 -24.22254807 64.1875 -36.0625 64.1875 C-36.0625 44.0575 -36.0625 23.9275 -36.0625 3.1875 C-28.4725 2.5275 -20.8825 1.8675 -13.0625 1.1875 C-8.49148971 0.42566495 -4.58146746 0.02492637 0 0 Z M-31.0625 9.1875 C-31.0625 26.6775 -31.0625 44.1675 -31.0625 62.1875 C-18.03563012 61.4854915 -18.03563012 61.4854915 -5.0625 60.1875 C-3.16857994 60.08187281 -1.27181274 60.01384535 0.625 60 C1.51574219 59.98582031 2.40648437 59.97164062 3.32421875 59.95703125 C6.18801783 60.2095935 8.29200871 61.1048567 10.9375 62.1875 C13.9314548 61.89397502 16.24699055 61.53275472 18.9375 60.1875 C25.53601901 59.97946787 31.94383122 60.48488379 38.5 61.1875 C40.29256981 61.37877638 42.08554068 61.56633418 43.87890625 61.75 C44.65951416 61.83378906 45.44012207 61.91757813 46.24438477 62.00390625 C49.80102692 62.24636794 53.37260293 62.1875 56.9375 62.1875 C56.9375 44.6975 56.9375 27.2075 56.9375 9.1875 C48.3575 7.8675 39.7775 6.5475 30.9375 5.1875 C29.9475 4.8575 28.9575 4.5275 27.9375 4.1875 C7.59636345 2.63474148 -11.1203705 5.40700152 -31.0625 9.1875 Z " fill="#E75A1F" transform="translate(115.0625,46.8125)"/>
<path d="M0 0 C0.66 0.33 1.32 0.66 2 1 C2.82202148 3.60107422 2.82202148 3.60107422 3.62109375 7.0546875 C4.06485352 8.93800781 4.06485352 8.93800781 4.51757812 10.859375 C4.82460615 12.19782786 5.1312446 13.53637014 5.4375 14.875 C6.0372081 17.45647809 6.64164577 20.03681087 7.24609375 22.6171875 C7.53726074 23.86209961 7.82842773 25.10701172 8.12841797 26.38964844 C9.31153111 31.29045436 10.62600196 36.14962898 12 41 C12.8470752 40.6918335 13.69415039 40.38366699 14.56689453 40.06616211 C17.7276436 38.92378265 20.89235859 37.79410674 24.06054688 36.67260742 C25.42789039 36.18572576 26.79349229 35.69392274 28.15722656 35.19702148 C30.12381959 34.48144001 32.09610607 33.78410097 34.0703125 33.08984375 C35.25383301 32.66566162 36.43735352 32.24147949 37.65673828 31.80444336 C41.26214025 30.93692478 43.44474421 31.02995377 47 32 C49.8671875 33.8984375 49.8671875 33.8984375 52.875 36.375 C57.7755497 40.31948451 62.78369717 43.9838626 68 47.5 C77.71465967 54.08863802 87.39447459 60.99486009 96 69 C96 69.66 96 70.32 96 71 C96.87785156 70.25169922 96.87785156 70.25169922 97.7734375 69.48828125 C109.79451053 59.43462107 122.66866156 50.47464806 135.64086914 41.69873047 C139.69231984 38.94903543 143.55936783 36.08387831 147.2265625 32.828125 C150.14314602 31.46619613 151.88976124 32.17455029 155 33 C158.77529289 34.4142578 162.48040066 35.97928491 166.1875 37.5625 C168.15811125 38.40195237 170.13068732 39.23681162 172.10546875 40.06640625 C172.97324951 40.43709229 173.84103027 40.80777832 174.73510742 41.18969727 C177.06986473 42.16842857 177.06986473 42.16842857 180 42 C180.37809814 40.79351807 180.75619629 39.58703613 181.14575195 38.34399414 C182.54808948 33.88043818 183.96628818 29.42205818 185.3894043 24.96508789 C186.00379258 23.03320154 186.61383607 21.09992795 187.21948242 19.1652832 C188.0894274 16.38899927 188.97473748 13.61803503 189.86328125 10.84765625 C190.13215652 9.97786636 190.4010318 9.10807648 190.67805481 8.21192932 C190.93809799 7.41117477 191.19814117 6.61042023 191.46606445 5.78540039 C191.69034622 5.0770253 191.91462799 4.36865021 192.14570618 3.6388092 C193 2 193 2 196 1 C196.99 1.495 196.99 1.495 198 2 C197.35648346 8.65282538 195.32537202 14.73081644 193.25 21.0625 C192.89164063 22.16907959 192.53328125 23.27565918 192.1640625 24.41577148 C189.58622074 32.33069614 186.90298384 40.19823093 184 48 C179.99854469 46.7197115 176.17437867 45.26102195 172.33984375 43.546875 C170.7784668 42.86625 170.7784668 42.86625 169.18554688 42.171875 C167.01113284 41.21999682 164.841843 40.2563307 162.67773438 39.28125 C161.63810547 38.83265625 160.59847656 38.3840625 159.52734375 37.921875 C158.58624756 37.50518555 157.64515137 37.08849609 156.67553711 36.65917969 C153.35115794 35.84014294 151.98082156 36.41398152 149 38 C147.19151917 39.26012064 145.42368287 40.57949558 143.6875 41.9375 C138.98071772 45.56397639 134.16925536 48.98068092 129.25 52.3125 C123.55109053 56.19012268 117.95516556 60.18071785 112.4375 64.3125 C111.79522461 64.79178955 111.15294922 65.2710791 110.49121094 65.76489258 C106.18224566 69.01574249 102.05946566 72.44318688 98 76 C94.5128757 74.35482067 92.26405438 72.46020917 89.5 69.75 C82.13549465 62.93464551 73.87864846 57.48542224 65.62060547 51.81982422 C60.5958311 48.3304756 55.66580283 44.70860182 50.73608398 41.08666992 C50.03942627 40.5785376 49.34276855 40.07040527 48.625 39.546875 C48.01914063 39.10182617 47.41328125 38.65677734 46.7890625 38.19824219 C46.19867188 37.80282227 45.60828125 37.40740234 45 37 C44.40123047 36.57710693 43.80246094 36.15421387 43.18554688 35.71850586 C39.82570464 34.61394646 37.6858482 35.76969189 34.40625 36.95703125 C33.77771118 37.17944992 33.14917236 37.40186859 32.50158691 37.63102722 C30.4956847 38.34410996 28.49800707 39.0776202 26.5 39.8125 C24.50055772 40.53201998 22.49965386 41.24733742 20.49841309 41.96183777 C18.68073681 42.61335233 16.86663503 43.2748139 15.05273438 43.93676758 C12.70151268 44.75567117 10.42611061 45.46098865 8 46 C5.29937527 38.40928508 3.29668702 30.6795741 1.35571289 22.86889648 C0.80898646 20.67339059 0.25342592 18.48024212 -0.30273438 16.28710938 C-0.65417787 14.88294555 -1.00510795 13.47865311 -1.35546875 12.07421875 C-1.67153076 10.81182373 -1.98759277 9.54942871 -2.31323242 8.2487793 C-3 5 -3 5 -3 1 C-2.01 0.67 -1.02 0.34 0 0 Z " fill="#F4F5F5" transform="translate(28,153)"/>
<path d="M0 0 C14.19 0 28.38 0 43 0 C43 1.65 43 3.3 43 5 C40.36 5 37.72 5 35 5 C35 9.95 35 14.9 35 20 C32.69 20 30.38 20 28 20 C28 15.05 28 10.1 28 5 C21.07 5 14.14 5 7 5 C7 5.99 7 6.98 7 8 C10.96 8 14.92 8 19 8 C19 9.32 19 10.64 19 12 C15.04 12 11.08 12 7 12 C7 13.32 7 14.64 7 16 C11.29 16 15.58 16 20 16 C20 17.65 20 19.3 20 21 C13.4 21 6.8 21 0 21 C0 14.07 0 7.14 0 0 Z " fill="#CFD4D9" transform="translate(125,70)"/>
<path d="M0 0 C1.82144531 0.00580078 1.82144531 0.00580078 3.6796875 0.01171875 C6.94845997 0.29708778 9.15471385 1.00769572 12.125 2.3125 C14.2432079 2.07480794 14.2432079 2.07480794 16.125 1.3125 C19.97108689 0.03047104 23.61661364 0.12132333 27.625 0.125 C28.84558105 0.12512085 28.84558105 0.12512085 30.09082031 0.12524414 C35.28443537 0.17428921 40.12779695 0.62681322 45.20507812 1.77856445 C48.62304292 2.40357189 51.98636863 2.65360768 55.453125 2.87890625 C57.33112793 3.0037439 57.33112793 3.0037439 59.24707031 3.13110352 C60.19678711 3.19096436 61.14650391 3.2508252 62.125 3.3125 C62.2500153 23.67653082 62.03766672 43.96440139 61.125 64.3125 C58.485 64.3125 55.845 64.3125 53.125 64.3125 C53.125 63.9825 53.125 63.6525 53.125 63.3125 C54.775 63.3125 56.425 63.3125 58.125 63.3125 C58.125 45.1625 58.125 27.0125 58.125 8.3125 C53.505 8.3125 48.885 8.3125 44.125 8.3125 C39.94335938 7.6628418 39.94335938 7.6628418 36.46875 6.82421875 C27.1981949 4.82571259 18.06527409 4.9775247 8.625 5.125 C6.91537659 5.14009924 5.20574004 5.15377823 3.49609375 5.16601562 C-0.62793875 5.1985488 -4.75131686 5.25002966 -8.875 5.3125 C-9.205 4.6525 -9.535 3.9925 -9.875 3.3125 C-7.17034215 -0.42861433 -4.38450055 -0.06025212 0 0 Z " fill="#EF5B1F" transform="translate(114.875,46.6875)"/>
<path d="M0 0 C2.0625 0.4375 2.0625 0.4375 4 1 C3.67 1.66 3.34 2.32 3 3 C2.34 2.67 1.68 2.34 1 2 C1.33 2.99 1.66 3.98 2 5 C2.68102783 5.01981934 3.36205566 5.03963867 4.0637207 5.06005859 C7.14703917 5.15526983 10.22967649 5.26496466 13.3125 5.375 C14.38435547 5.4059375 15.45621094 5.436875 16.56054688 5.46875 C17.58857422 5.50742187 18.61660156 5.54609375 19.67578125 5.5859375 C20.62364502 5.6173584 21.57150879 5.6487793 22.5480957 5.68115234 C25 6 25 6 28 8 C27.67 8.66 27.34 9.32 27 10 C28.32 10.33 29.64 10.66 31 11 C31 11.66 31 12.32 31 13 C30.01 13.33 29.02 13.66 28 14 C29.65 14 31.3 14 33 14 C33 12.02 33 10.04 33 8 C32.34 7.67 31.68 7.34 31 7 C41.56 7 52.12 7 63 7 C62.34 7.33 61.68 7.66 61 8 C61.14084796 9.79206547 61.28783701 11.58364917 61.4375 13.375 C61.51871094 14.37273438 61.59992188 15.37046875 61.68359375 16.3984375 C61.84965626 18.97927613 61.84965626 18.97927613 63 21 C61.02 20.67 59.04 20.34 57 20 C57 19.34 57 18.68 57 18 C57.66 18 58.32 18 59 18 C59 16.68 59 15.36 59 14 C57.35 14 55.7 14 54 14 C54 13.67 54 13.34 54 13 C55.65 13 57.3 13 59 13 C59 11.35 59 9.7 59 8 C57.02 8 55.04 8 53 8 C53 9.65 53 11.3 53 13 C52.67 13 52.34 13 52 13 C52 11.35 52 9.7 52 8 C50.68 8 49.36 8 48 8 C48 11.3 48 14.6 48 18 C47.34 18 46.68 18 46 18 C46 16.35 46 14.7 46 13 C44.35 13 42.7 13 41 13 C40.67 13.66 40.34 14.32 40 15 C39.34 14.01 38.68 13.02 38 12 C40.64 12 43.28 12 46 12 C46 10.68 46 9.36 46 8 C42.37 8 38.74 8 35 8 C35 11.3 35 14.6 35 18 C32.03 17.01 29.06 16.02 26 15 C25 10.25 25 10.25 25 8 C24.34 8 23.68 8 23 8 C23 11.3 23 14.6 23 18 C22.34 18 21.68 18 21 18 C21 14.7 21 11.4 21 8 C20.01 8 19.02 8 18 8 C18 11.3 18 14.6 18 18 C17.34 18 16.68 18 16 18 C16 16.68 16 15.36 16 14 C14.02 14 12.04 14 10 14 C9.67 14.66 9.34 15.32 9 16 C8.01 14.68 7.02 13.36 6 12 C6.99 12 7.98 12 9 12 C9 10.68 9 9.36 9 8 C7.35 8 5.7 8 4 8 C4 11.3 4 14.6 4 18 C-2.93359375 16.046875 -2.93359375 16.046875 -5 15 C-5.84765625 12.953125 -5.84765625 12.953125 -6 11 C-5 10 -5 10 -1.9375 9.9375 C-0.4834375 9.9684375 -0.4834375 9.9684375 1 10 C1 9.34 1 8.68 1 8 C-1.97 8 -4.94 8 -8 8 C-8 11.3 -8 14.6 -8 18 C-8.66 18 -9.32 18 -10 18 C-10 16.68 -10 15.36 -10 14 C-11.65 14.33 -13.3 14.66 -15 15 C-14.34 16.32 -13.68 17.64 -13 19 C-15.31 17.02 -17.62 15.04 -20 13 C-19.01 12.67 -18.02 12.34 -17 12 C-17 10.68 -17 9.36 -17 8 C-18.65 8 -20.3 8 -22 8 C-22 7.34 -22 6.68 -22 6 C-14.74 6 -7.48 6 0 6 C-0.33 4.35 -0.66 2.7 -1 1 C-0.67 0.67 -0.34 0.34 0 0 Z " fill="#F0541B" transform="translate(139,15)"/>
<path d="M0 0 C1.9375 0.75 1.9375 0.75 4 2 C4.33 3.32 4.66 4.64 5 6 C19.85 6 34.7 6 50 6 C50 9.16227399 49.82985212 12.11640488 49.5 15.25 C49.36078125 16.58804687 49.36078125 16.58804687 49.21875 17.953125 C49.1465625 18.62859375 49.074375 19.3040625 49 20 C50.32 20.66 51.64 21.32 53 22 C49.79604584 22 47.90600261 21.25664978 45 20 C45.33 18.02 45.66 16.04 46 14 C44.02 14.66 42.04 15.32 40 16 C38 13 38 13 38.375 10.3125 C38.58125 9.549375 38.7875 8.78625 39 8 C37.68 8 36.36 8 35 8 C35 11.3 35 14.6 35 18 C34.34 17.67 33.68 17.34 33 17 C33 15.35 33 13.7 33 12 C32.01 12.66 31.02 13.32 30 14 C29.01 14 28.02 14 27 14 C27 13.34 27 12.68 27 12 C26.34 12.33 25.68 12.66 25 13 C25.66 14.65 26.32 16.3 27 18 C25.0625 17.3125 25.0625 17.3125 23 16 C22.1875 13.4375 22.1875 13.4375 22 11 C23 10 23 10 25.28515625 9.90234375 C26.20167969 9.91394531 27.11820313 9.92554688 28.0625 9.9375 C28.98160156 9.94652344 29.90070313 9.95554687 30.84765625 9.96484375 C31.55792969 9.97644531 32.26820312 9.98804688 33 10 C33 9.34 33 8.68 33 8 C28.71 8 24.42 8 20 8 C20 11.3 20 14.6 20 18 C19.34 17.67 18.68 17.34 18 17 C18 14.03 18 11.06 18 8 C17.34 8 16.68 8 16 8 C16.04125 8.9075 16.0825 9.815 16.125 10.75 C16.00298518 13.92238526 15.60948489 15.34908371 14 18 C13.67 18.66 13.34 19.32 13 20 C11.2925002 18.71937515 9.62626404 17.38232443 8 16 C8 15.34 8 14.68 8 14 C8.99 13.67 9.98 13.34 11 13 C10.34 12.34 9.68 11.68 9 11 C9 10.01 9 9.02 9 8 C8.01 8 7.02 8 6 8 C6 11.3 6 14.6 6 18 C5.34 18 4.68 18 4 18 C4 14.7 4 11.4 4 8 C1.69 8 -0.62 8 -3 8 C-3 8.99 -3 9.98 -3 11 C-1.68 11.33 -0.36 11.66 1 12 C1.33 13.65 1.66 15.3 2 17 C1.01 17 0.02 17 -1 17 C-0.67 15.68 -0.34 14.36 0 13 C-0.99 13 -1.98 13 -3 13 C-3 14.65 -3 16.3 -3 18 C-3.66 18 -4.32 18 -5 18 C-5 17.01 -5 16.02 -5 15 C-6.65 15 -8.3 15 -10 15 C-10 13.68 -10 12.36 -10 11 C-9.360625 10.87625 -8.72125 10.7525 -8.0625 10.625 C-7.381875 10.41875 -6.70125 10.2125 -6 10 C-5.67 9.34 -5.34 8.68 -5 8 C-7.31 8 -9.62 8 -12 8 C-12 7.34 -12 6.68 -12 6 C-6.06 5.505 -6.06 5.505 0 5 C-0.66 4.67 -1.32 4.34 -2 4 C-1.67 3.34 -1.34 2.68 -1 2 C-0.01 2.33 0.98 2.66 2 3 C1.34 2.67 0.68 2.34 0 2 C0 1.34 0 0.68 0 0 Z " fill="#EE3E04" transform="translate(62,15)"/>
<path d="M0 0 C2.6796875 -0.4453125 2.6796875 -0.4453125 6 0 C8.170527 2.07757081 9.59832722 4.55325468 11.125 7.125 C11.54136719 7.79015625 11.95773437 8.4553125 12.38671875 9.140625 C13.21165027 10.45948104 14.0234472 11.78665217 14.82128906 13.12207031 C16.12300795 15.26645762 16.12300795 15.26645762 18.4296875 18.1171875 C20 21 20 21 19.5703125 23.6640625 C18.79300781 25.31535156 18.79300781 25.31535156 18 27 C17.63100586 27.8362793 17.26201172 28.67255859 16.88183594 29.53417969 C15.57463685 32.49480898 14.2290535 35.43552811 12.875 38.375 C12.40707031 39.39722656 11.93914063 40.41945312 11.45703125 41.47265625 C10.30741708 43.98303821 9.15499936 46.49209231 8 49 C8.83136475 48.76812988 9.66272949 48.53625977 10.51928711 48.29736328 C13.64426001 47.42700755 16.76981138 46.55876782 19.89575195 45.69189453 C21.24103453 45.31837473 22.58609265 44.94404543 23.9309082 44.56884766 C43.89708333 39 43.89708333 39 50 39 C50 39.99 50 40.98 50 42 C34.07739358 46.63382354 18.09270173 50.99350869 2 55 C2.59937701 51.07060303 3.82290875 48.13226494 5.71484375 44.6484375 C6.23498047 43.63136719 6.75511719 42.61429688 7.29101562 41.56640625 C8.38498807 39.44594247 9.51003031 37.34121081 10.66601562 35.25390625 C13.684803 29.36322111 13.684803 29.36322111 13.13085938 23.00292969 C11.60070145 20.1530348 9.92033191 17.60042219 8 15 C7.21854646 13.80391303 6.43941291 12.60630226 5.6640625 11.40625 C4.28973795 9.44744259 2.91472325 7.48911923 1.5390625 5.53125 C0 3 0 3 0 0 Z " fill="#F1F2F3" transform="translate(0,170)"/>
<path d="M0 0 C0.928125 0.0825 1.85625 0.165 2.8125 0.25 C2.21768111 3.91313184 0.69949991 5.82740073 -1.69921875 8.609375 C-9.58981362 17.99766433 -9.58981362 17.99766433 -11.89697266 29.51708984 C-10.01945702 36.0605976 -6.89933774 41.89914991 -3.515625 47.77685547 C-1.83974445 50.89756686 -0.95412863 53.80496261 -0.1875 57.25 C-10.25803889 54.72428355 -20.04362574 51.37386578 -29.875 48.0625 C-31.5591505 47.4977656 -33.24339462 46.9333103 -34.92773438 46.36914062 C-39.01540875 44.9993074 -43.10179965 43.62570926 -47.1875 42.25 C-47.1875 41.26 -47.1875 40.27 -47.1875 39.25 C-39.39701518 40.7802738 -31.92030132 43.14044982 -24.37060547 45.5546875 C-20.64802372 46.74031855 -16.91735171 47.89998693 -13.1875 49.0625 C-11.83329732 49.48556182 -10.47912723 49.90872798 -9.125 50.33203125 C-8.155625 50.63496094 -7.18625 50.93789062 -6.1875 51.25 C-6.52595947 50.49380371 -6.86441895 49.73760742 -7.21313477 48.95849609 C-8.46836805 46.1346 -9.70972044 43.30511048 -10.94213867 40.47119141 C-11.73934707 38.64934496 -12.55219529 36.8343682 -13.36523438 35.01953125 C-13.86474609 33.86582031 -14.36425781 32.71210938 -14.87890625 31.5234375 C-15.34498291 30.46560059 -15.81105957 29.40776367 -16.29125977 28.31787109 C-17.50731792 24.1552487 -17.11762605 21.13564016 -15.20361328 17.25537109 C-14.80899902 16.68383301 -14.41438477 16.11229492 -14.0078125 15.5234375 C-13.57339844 14.8840625 -13.13898438 14.2446875 -12.69140625 13.5859375 C-12.00884766 12.61527344 -12.00884766 12.61527344 -11.3125 11.625 C-10.86519531 10.97015625 -10.41789062 10.3153125 -9.95703125 9.640625 C-9.09468136 8.38398534 -8.22404495 7.13297937 -7.34399414 5.88867188 C-6.39469546 4.54358158 -5.47608747 3.17688134 -4.56640625 1.8046875 C-3.1875 0.25 -3.1875 0.25 0 0 Z " fill="#F2F3F4" transform="translate(247.1875,169.75)"/>
<path d="M0 0 C2.66666667 0 5.33333333 0 8 0 C9.051875 -0.01160156 10.10375 -0.02320312 11.1875 -0.03515625 C13.0746875 -0.04869141 13.0746875 -0.04869141 15 -0.0625 C16.258125 -0.07410156 17.51625 -0.08570312 18.8125 -0.09765625 C22 0 22 0 24 1 C24 1.99 24 2.98 24 4 C24.66 4 25.32 4 26 4 C26 2.68 26 1.36 26 0 C28.31 0.33 30.62 0.66 33 1 C33 2.32 33 3.64 33 5 C32.401875 4.814375 31.80375 4.62875 31.1875 4.4375 C28.83591238 3.77906313 28.83591238 3.77906313 26 5 C26 5.66 26 6.32 26 7 C29.16245541 8.0541518 31.86948218 8.31275672 35.1875 8.5625 C36.27417969 8.64628906 37.36085937 8.73007813 38.48046875 8.81640625 C39.31191406 8.87699219 40.14335937 8.93757813 41 9 C41 9.66 41 10.32 41 11 C39.68 11 38.36 11 37 11 C37 11.66 37 12.32 37 13 C39.475 13.99 39.475 13.99 42 15 C41.67 16.32 41.34 17.64 41 19 C39.04175306 19.16767864 37.08339945 19.33411205 35.125 19.5 C34.03445312 19.5928125 32.94390625 19.685625 31.8203125 19.78125 C29.1853536 19.98562354 26.64317153 20 24 20 C23.34 17.03 22.68 14.06 22 11 C20.35 11 18.7 11 17 11 C17 11.66 17 12.32 17 13 C18.32 13 19.64 13 21 13 C21 13.66 21 14.32 21 15 C19.35 15 17.7 15 16 15 C16.33 15.66 16.66 16.32 17 17 C19.52733235 17.65555119 19.52733235 17.65555119 22 18 C22 18.33 22 18.66 22 19 C19.36 19 16.72 19 14 19 C14 15.7 14 12.4 14 9 C15.134375 8.87625 16.26875 8.7525 17.4375 8.625 C18.613125 8.41875 19.78875 8.2125 21 8 C21.33 7.34 21.66 6.68 22 6 C14.31395526 5.02840067 6.74136601 4.89079578 -1 5 C-0.67 3.35 -0.34 1.7 0 0 Z " fill="#1A334A" transform="translate(107,117)"/>
<path d="M0 0 C0 0.66 0 1.32 0 2 C-5.47619048 7 -5.47619048 7 -8 7 C-6.01315378 10.05122812 -4.05821444 12.92884901 -1.75 15.75 C0 18 0 18 0 20 C-5.21038961 20.52987013 -5.21038961 20.52987013 -8 20 C-9.50390625 18.6640625 -9.50390625 18.6640625 -10.75 17 C-11.4925 16.01 -12.235 15.02 -13 14 C-14.32 14 -15.64 14 -17 14 C-17 15.98 -17 17.96 -17 20 C-18.98 20 -20.96 20 -23 20 C-23 13.73 -23 7.46 -23 1 C-21.02 1 -19.04 1 -17 1 C-17 3.31 -17 5.62 -17 8 C-16.34 8 -15.68 8 -15 8 C-14.7525 7.4225 -14.505 6.845 -14.25 6.25 C-10.58127745 -0.35370058 -7.07943995 -0.5445723 0 0 Z " fill="#F5F6F7" transform="translate(112,70)"/>
<path d="M0 0 C2.31 0 4.62 0 7 0 C7 18.15 7 36.3 7 55 C-0.12145243 56.42429049 -6.78862787 56.14967316 -14 55.5 C-25.38675682 54.43263837 -25.38675682 54.43263837 -36 58 C-39.6875 57.875 -39.6875 57.875 -43 57 C-43.42667969 56.47019531 -43.85335937 55.94039062 -44.29296875 55.39453125 C-46.02574207 53.66173789 -46.02574207 53.66173789 -49.0390625 54.14453125 C-50.22242187 54.36496094 -51.40578125 54.58539063 -52.625 54.8125 C-58.2174626 55.75811349 -63.34090287 56.19514128 -69 56 C-69 55.34 -69 54.68 -69 54 C-70.98 54 -72.96 54 -75 54 C-75 53.67 -75 53.34 -75 53 C-47.86654481 49.85083214 -47.86654481 49.85083214 -40 53 C-37.0060452 52.70647502 -34.69050945 52.34525472 -32 51 C-23.91136558 50.6568978 -15.96994481 51.6215149 -7.9375 52.5 C-3.338125 52.995 1.26125 53.49 6 54 C6 36.51 6 19.02 6 1 C4.02 1 2.04 1 0 1 C0 0.67 0 0.34 0 0 Z " fill="#E25A1F" transform="translate(166,55)"/>
<path d="M0 0 C6.27 0 12.54 0 19 0 C19 0.99 19 1.98 19 3 C14.71 3 10.42 3 6 3 C6 4.32 6 5.64 6 7 C9.96 7 13.92 7 18 7 C18 8.32 18 9.64 18 11 C14.04 11 10.08 11 6 11 C6 12.32 6 13.64 6 15 C10.29 15 14.58 15 19 15 C19 16.32 19 17.64 19 19 C12.73 19 6.46 19 0 19 C0 12.73 0 6.46 0 0 Z " fill="#FAFAFB" transform="translate(126,71)"/>
<path d="M0 0 C2.37507855 -0.02719556 4.74983964 -0.04693247 7.125 -0.0625 C8.12273437 -0.07506836 8.12273437 -0.07506836 9.140625 -0.08789062 C12.25956268 -0.10317954 15.16580565 0.02896605 18.2421875 0.56640625 C21.06464665 1.01016399 22.30986566 0.73777938 25 0 C27.51398694 -0.12628673 29.985699 -0.18976565 32.5 -0.1875 C33.25522949 -0.18814453 34.01045898 -0.18878906 34.78857422 -0.18945312 C46.88144195 -0.08489699 58.95195493 1.03183053 71 2 C71.12330415 13.71389465 70.8283506 25.31433979 70 37 C69.01 37.495 69.01 37.495 68 38 C68 27.11 68 16.22 68 5 C63.38 5 58.76 5 54 5 C48.75 4 48.75 4 46.13671875 3.453125 C41.93671902 2.84640026 37.80140723 2.77025762 33.5625 2.75 C32.78036133 2.74097656 31.99822266 2.73195312 31.19238281 2.72265625 C27.25094763 2.74317565 24.39823242 2.96924906 21 5 C18.39754392 4.73975439 16.50843114 4.2902107 14.234375 2.9921875 C11.37530987 1.72260263 8.86404978 1.5780902 5.75 1.375 C4.67234375 1.30023438 3.5946875 1.22546875 2.484375 1.1484375 C1.25460938 1.07496094 1.25460938 1.07496094 0 1 C0 0.67 0 0.34 0 0 Z " fill="#12203C" transform="translate(109,45)"/>
<path d="M0 0 C1.9375 0.75 1.9375 0.75 4 2 C4.33 3.32 4.66 4.64 5 6 C19.85 6 34.7 6 50 6 C50 6.33 50 6.66 50 7 C38.12 7.33 26.24 7.66 14 8 C14 9.65 14 11.3 14 13 C12.68 12.67 11.36 12.34 10 12 C9.67 10.68 9.34 9.36 9 8 C8.01 8 7.02 8 6 8 C6 11.3 6 14.6 6 18 C5.34 18 4.68 18 4 18 C4 14.7 4 11.4 4 8 C1.69 8 -0.62 8 -3 8 C-3 8.99 -3 9.98 -3 11 C-1.68 11.33 -0.36 11.66 1 12 C1.33 13.65 1.66 15.3 2 17 C1.01 17 0.02 17 -1 17 C-0.67 15.68 -0.34 14.36 0 13 C-0.99 13 -1.98 13 -3 13 C-3 14.65 -3 16.3 -3 18 C-3.66 18 -4.32 18 -5 18 C-5 17.01 -5 16.02 -5 15 C-6.65 15 -8.3 15 -10 15 C-10 13.68 -10 12.36 -10 11 C-9.360625 10.87625 -8.72125 10.7525 -8.0625 10.625 C-7.381875 10.41875 -6.70125 10.2125 -6 10 C-5.67 9.34 -5.34 8.68 -5 8 C-7.31 8 -9.62 8 -12 8 C-12 7.34 -12 6.68 -12 6 C-6.06 5.505 -6.06 5.505 0 5 C-0.66 4.67 -1.32 4.34 -2 4 C-1.67 3.34 -1.34 2.68 -1 2 C-0.01 2.33 0.98 2.66 2 3 C1.34 2.67 0.68 2.34 0 2 C0 1.34 0 0.68 0 0 Z " fill="#F15E2A" transform="translate(62,15)"/>
<path d="M0 0 C2.31 0 4.62 0 7 0 C6.67 0.99 6.34 1.98 6 3 C7.32 3.33 8.64 3.66 10 4 C10 4.66 10 5.32 10 6 C9.01 6.33 8.02 6.66 7 7 C8.65 7 10.3 7 12 7 C12 5.02 12 3.04 12 1 C11.34 0.67 10.68 0.34 10 0 C20.56 0 31.12 0 42 0 C41.34 0.33 40.68 0.66 40 1 C40.14084796 2.79206547 40.28783701 4.58364917 40.4375 6.375 C40.51871094 7.37273438 40.59992188 8.37046875 40.68359375 9.3984375 C40.84965626 11.97927613 40.84965626 11.97927613 42 14 C40.02 13.67 38.04 13.34 36 13 C36 12.34 36 11.68 36 11 C36.66 11 37.32 11 38 11 C38 9.68 38 8.36 38 7 C36.35 7 34.7 7 33 7 C33 6.67 33 6.34 33 6 C34.65 6 36.3 6 38 6 C38 4.35 38 2.7 38 1 C36.02 1 34.04 1 32 1 C32 2.65 32 4.3 32 6 C31.67 6 31.34 6 31 6 C31 4.35 31 2.7 31 1 C29.68 1 28.36 1 27 1 C27 4.3 27 7.6 27 11 C26.34 11 25.68 11 25 11 C25 9.35 25 7.7 25 6 C23.35 6 21.7 6 20 6 C19.67 6.66 19.34 7.32 19 8 C18.34 7.01 17.68 6.02 17 5 C19.64 5 22.28 5 25 5 C25 3.68 25 2.36 25 1 C21.37 1 17.74 1 14 1 C14 4.3 14 7.6 14 11 C11.03 10.01 8.06 9.02 5 8 C4 3.25 4 3.25 4 1 C3.34 1 2.68 1 2 1 C2 4.3 2 7.6 2 11 C1.34 11 0.68 11 0 11 C0 7.37 0 3.74 0 0 Z " fill="#EF4811" transform="translate(160,22)"/>
<path d="M0 0 C0.66 0 1.32 0 2 0 C2.25394531 0.72445312 2.50789063 1.44890625 2.76953125 2.1953125 C4.59027321 7.30975622 6.51936935 12.16277023 9 17 C9 17.66 9 18.32 9 19 C8.195625 19.474375 7.39125 19.94875 6.5625 20.4375 C3.7081924 21.79983672 3.7081924 21.79983672 3 25 C5.97 24.01 8.94 23.02 12 22 C13.65 23.98 15.3 25.96 17 28 C16.67 28.66 16.34 29.32 16 30 C15.01 30 14.02 30 13 30 C11.65210653 30.98028616 10.31787285 31.97971135 9 33 C8.34 33 7.68 33 7 33 C7 29.69674728 9.758552 28.241448 12 26 C12 25.34 12 24.68 12 24 C10.9171875 24.7734375 10.9171875 24.7734375 9.8125 25.5625 C6.5804634 27.21442982 5.38391693 27.06351675 2 26 C1.67 24.35 1.34 22.7 1 21 C1.825 20.38125 2.65 19.7625 3.5 19.125 C4.325 18.42375 5.15 17.7225 6 17 C6 16.34 6 15.68 6 15 C3.36 15.99 0.72 16.98 -2 18 C-1 15 -1 15 1.0625 13.8125 C2.0215625 13.4103125 2.0215625 13.4103125 3 13 C3 12.34 3 11.68 3 11 C0.36 11.33 -2.28 11.66 -5 12 C-5 11.34 -5 10.68 -5 10 C-3.02 9.01 -1.04 8.02 1 7 C1 6.34 1 5.68 1 5 C-1.64 5.66 -4.28 6.32 -7 7 C-7 6.34 -7 5.68 -7 5 C-4.69 4.34 -2.38 3.68 0 3 C0 2.01 0 1.02 0 0 Z " fill="#1E2A3C" transform="translate(62,130)"/>
<path d="M0 0 C-0.99 0.495 -0.99 0.495 -2 1 C-2.33 1.99 -2.66 2.98 -3 4 C-5.31 4 -7.62 4 -10 4 C-10 7.3 -10 10.6 -10 14 C-10.99 14 -11.98 14 -13 14 C-12.125 6.25 -12.125 6.25 -11 4 C-11.66 4 -12.32 4 -13 4 C-13.66 6.31 -14.32 8.62 -15 11 C-18 7.375 -18 7.375 -18 4 C-20.31 3.34 -22.62 2.68 -25 2 C-25 1.34 -25 0.68 -25 0 C-17.27055109 -2.57648297 -7.97165222 -0.98763833 0 0 Z " fill="#0D253D" transform="translate(131,122)"/>
<path d="M0 0 C2.31 0 4.62 0 7 0 C7 18.15 7 36.3 7 55 C-1.76712574 56.75342515 -10.28539175 55.91872333 -19.125 55 C-20.55972656 54.85691406 -20.55972656 54.85691406 -22.0234375 54.7109375 C-24.34943754 54.4783375 -26.67488959 54.24130321 -29 54 C-29 53.67 -29 53.34 -29 53 C-16.86808651 51.49115698 -6.55157431 52.80461197 6 54 C6 36.51 6 19.02 6 1 C4.02 1 2.04 1 0 1 C0 0.67 0 0.34 0 0 Z " fill="#AC4D28" transform="translate(166,55)"/>
<path d="M0 0 C2.97 0 5.94 0 9 0 C9 0.66 9 1.32 9 2 C7.68 2 6.36 2 5 2 C5 3.32 5 4.64 5 6 C6.32 6 7.64 6 9 6 C8.814375 6.639375 8.62875 7.27875 8.4375 7.9375 C8.293125 8.618125 8.14875 9.29875 8 10 C8.33 10.33 8.66 10.66 9 11 C9.1875 13.4375 9.1875 13.4375 9 16 C7 18 7 18 4.5625 18.3125 C2 18 2 18 0.125 16.8125 C-1 15 -1 15 -0.75 12.375 C0 10 0 10 1 9 C0.34 8.67 -0.32 8.34 -1 8 C-1 7.34 -1 6.68 -1 6 C0.32 6 1.64 6 3 6 C3 4.68 3 3.36 3 2 C2.01 2 1.02 2 0 2 C0 1.34 0 0.68 0 0 Z " fill="#E2E5E8" transform="translate(190,103)"/>
<path d="M0 0 C1.98 0 3.96 0 6 0 C6 6.27 6 12.54 6 19 C4.02 19 2.04 19 0 19 C0 12.73 0 6.46 0 0 Z " fill="#FEFEFE" transform="translate(115,71)"/>
<path d="M0 0 C3.3 0.99 6.6 1.98 10 3 C10 3.66 10 4.32 10 5 C8.35 5.33 6.7 5.66 5 6 C5 6.99 5 7.98 5 9 C6.65 9.33 8.3 9.66 10 10 C10.04241723 12.33294775 10.04092937 14.66702567 10 17 C9 18 9 18 5.5625 18.1875 C2 18 2 18 0 16 C0.3269756 13.38419521 0.82039068 11.35921863 2 9 C1.34 9 0.68 9 0 9 C0 8.01 0 7.02 0 6 C1.32 5.67 2.64 5.34 4 5 C4 4.34 4 3.68 4 3 C2.68 2.67 1.36 2.34 0 2 C0 1.34 0 0.68 0 0 Z " fill="#868F9A" transform="translate(189,43)"/>
<path d="M0 0 C0 6.6 0 13.2 0 20 C-5.66831683 15.46534653 -5.66831683 15.46534653 -7.8125 12.375 C-8.23144531 11.78460938 -8.65039062 11.19421875 -9.08203125 10.5859375 C-10 9 -10 9 -10 7 C-8.06640625 5.2734375 -8.06640625 5.2734375 -5.5625 3.375 C-4.73878906 2.74335937 -3.91507812 2.11171875 -3.06640625 1.4609375 C-1 0 -1 0 0 0 Z " fill="#0D223B" transform="translate(114,70)"/>
<path d="M0 0 C2.66666667 0 5.33333333 0 8 0 C9.051875 -0.01160156 10.10375 -0.02320312 11.1875 -0.03515625 C13.0746875 -0.04869141 13.0746875 -0.04869141 15 -0.0625 C16.258125 -0.07410156 17.51625 -0.08570312 18.8125 -0.09765625 C22 0 22 0 24 1 C23.67 2.32 23.34 3.64 23 5 C15.08 5 7.16 5 -1 5 C-0.67 3.35 -0.34 1.7 0 0 Z " fill="#788693" transform="translate(107,117)"/>
<path d="M0 0 C0.33 0 0.66 0 1 0 C1.33 4.29 1.66 8.58 2 13 C2.33 13 2.66 13 3 13 C3 26.86 3 40.72 3 55 C0.36 55 -2.28 55 -5 55 C-5 54.67 -5 54.34 -5 54 C-3.35 54 -1.7 54 0 54 C0 36.18 0 18.36 0 0 Z " fill="#FE611A" transform="translate(173,56)"/>
<path d="M0 0 C3.63 0 7.26 0 11 0 C11 0.66 11 1.32 11 2 C9.68 2 8.36 2 7 2 C7 2.66 7 3.32 7 4 C9.475 4.99 9.475 4.99 12 6 C11.67 7.32 11.34 8.64 11 10 C9.04175306 10.16767864 7.08339945 10.33411205 5.125 10.5 C4.03445312 10.5928125 2.94390625 10.685625 1.8203125 10.78125 C-1.44004844 11.03413118 -2.85565469 11.0481151 -6 10 C-5.34 10 -4.68 10 -4 10 C-4 9.01 -4 8.02 -4 7 C-3.01 7 -2.02 7 -1 7 C-0.34 7.66 0.32 8.32 1 9 C1.33 6.36 1.66 3.72 2 1 C1.34 0.67 0.68 0.34 0 0 Z " fill="#1F3147" transform="translate(137,126)"/>
<path d="M0 0 C3.3 0 6.6 0 10 0 C9 3 9 3 6 5 C7.32 5.33 8.64 5.66 10 6 C11.125 13.75 11.125 13.75 10 16 C9.34 16 8.68 16 8 16 C8.33 14.35 8.66 12.7 9 11 C8.34 11 7.68 11 7 11 C7 12.65 7 14.3 7 16 C5.125 16.625 5.125 16.625 3 17 C1 15 1 15 0.875 12.375 C0.91625 11.59125 0.9575 10.8075 1 10 C1.99 9.67 2.98 9.34 4 9 C3.67 10.98 3.34 12.96 3 15 C3.66 15 4.32 15 5 15 C4.979375 14.195625 4.95875 13.39125 4.9375 12.5625 C5 10 5 10 6 9 C3.03 8.505 3.03 8.505 0 8 C1 5 1 5 4 3 C2.68 2.67 1.36 2.34 0 2 C0 1.34 0 0.68 0 0 Z " fill="#3D4C5C" transform="translate(52,114)"/>
<path d="M0 0 C0.99 0 1.98 0 3 0 C8 5.34883721 8 5.34883721 8 8 C7.34 8 6.68 8 6 8 C6 8.66 6 9.32 6 10 C3.36 9.67 0.72 9.34 -2 9 C-1.34 10.65 -0.68 12.3 0 14 C-4.39158329 12.5361389 -4.87947433 10.02168662 -7 6 C-2.25 2 -2.25 2 0 2 C0 1.34 0 0.68 0 0 Z " fill="#CDD3D7" transform="translate(165,164)"/>
<path d="M0 0 C7.59 0 15.18 0 23 0 C19 2 19 2 16 2 C16 5.3 16 8.6 16 12 C15.34 12 14.68 12 14 12 C14 10.68 14 9.36 14 8 C12.02 8 10.04 8 8 8 C7.67 8.66 7.34 9.32 7 10 C6.01 8.68 5.02 7.36 4 6 C5.32 6 6.64 6 8 6 C8 4.68 8 3.36 8 2 C5.36 1.67 2.72 1.34 0 1 C0 0.67 0 0.34 0 0 Z " fill="#F26B3B" transform="translate(141,21)"/>
<path d="M0 0 C0 2.77996107 -0.21297929 5.42492567 -0.5 8.1875 C-0.5928125 9.08855469 -0.685625 9.98960938 -0.78125 10.91796875 C-0.88953125 11.94857422 -0.88953125 11.94857422 -1 13 C0.32 13.66 1.64 14.32 3 15 C-0.20395416 15 -2.09399739 14.25664978 -5 13 C-4.67 11.02 -4.34 9.04 -4 7 C-5.98 7.66 -7.96 8.32 -10 9 C-10.66 8.01 -11.32 7.02 -12 6 C-11.67 4.35 -11.34 2.7 -11 1 C-5.555 0.505 -5.555 0.505 0 0 Z " fill="#EF4A0D" transform="translate(112,22)"/>
<path d="M0 0 C-0.33 1.65 -0.66 3.3 -1 5 C-1.33 3.68 -1.66 2.36 -2 1 C-3.65 1 -5.3 1 -7 1 C-7 4.3 -7 7.6 -7 11 C-13.93359375 9.046875 -13.93359375 9.046875 -16 8 C-16.84765625 5.953125 -16.84765625 5.953125 -17 4 C-16 3 -16 3 -12.9375 2.9375 C-11.4834375 2.9684375 -11.4834375 2.9684375 -10 3 C-10 2.34 -10 1.68 -10 1 C-12.97 1 -15.94 1 -19 1 C-19 0.67 -19 0.34 -19 0 C-12.42150508 -0.95494281 -6.58183362 -0.8931507 0 0 Z " fill="#EE3D01" transform="translate(150,22)"/>
<path d="M0 0 C-1.32 1.32 -2.64 2.64 -4 4 C-2.35 3.34 -0.7 2.68 1 2 C1 2.66 1 3.32 1 4 C0.01 4.495 0.01 4.495 -1 5 C-1.33 5.99 -1.66 6.98 -2 8 C-1.01 7.34 -0.02 6.68 1 6 C1.99 6.33 2.98 6.66 4 7 C1.6875 8.5625 1.6875 8.5625 -1 10 C-1.99 9.67 -2.98 9.34 -4 9 C-5.1875 5.9375 -5.1875 5.9375 -6 3 C-7.98 3.66 -9.96 4.32 -12 5 C-12 5.66 -12 6.32 -12 7 C-10.02 6.67 -8.04 6.34 -6 6 C-7.98 6.99 -7.98 6.99 -10 8 C-10 8.99 -10 9.98 -10 11 C-8.02 10.67 -6.04 10.34 -4 10 C-6.5654594 12.5654594 -8.47686668 12.54046087 -12 13 C-12.66 10.03 -13.32 7.06 -14 4 C-12.23494565 3.13395466 -10.46271926 2.28251358 -8.6875 1.4375 C-7.70136719 0.96183594 -6.71523437 0.48617187 -5.69921875 -0.00390625 C-3 -1 -3 -1 0 0 Z " fill="#253245" transform="translate(158,172)"/>
<path d="M0 0 C2.375 0.75 2.375 0.75 3.375 1.75 C3.83477011 7.03735632 3.83477011 7.03735632 2.125 9.6875 C0.375 10.75 0.375 10.75 -1.6875 10.5625 C-3.625 9.75 -3.625 9.75 -5.625 7.75 C-5.99296448 4.87987704 -6.00009409 3.34225382 -4.4375 0.875 C-2.625 -0.25 -2.625 -0.25 0 0 Z " fill="#131A2B" transform="translate(90.625,168.25)"/>
<path d="M0 0 C2 2 2 2 2.1875 5.0625 C2 8 2 8 1 9 C-2.4375 9.1875 -2.4375 9.1875 -6 9 C-6.66 8.34 -7.32 7.68 -8 7 C-7.75 3.9375 -7.75 3.9375 -7 1 C-4.48718205 -0.25640898 -2.78302919 -0.20872719 0 0 Z " fill="#1F2C3E" transform="translate(197,82)"/>
<path d="M0 0 C-0.33 0.99 -0.66 1.98 -1 3 C-14.84066367 4.93385716 -28.06882066 5.00173039 -42 4 C-42 3.67 -42 3.34 -42 3 C-40.22496094 2.92652344 -40.22496094 2.92652344 -38.4140625 2.8515625 C-28.50819474 2.50946131 -28.50819474 2.50946131 -18.75 0.9375 C-12.57739385 -0.52443304 -6.30309929 -0.16348096 0 0 Z " fill="#3E4758" transform="translate(122,44)"/>
<path d="M0 0 C3.0625 0.1875 3.0625 0.1875 5.0625 2.1875 C5.3125 4.6875 5.3125 4.6875 5.0625 7.1875 C3.0625 9.1875 3.0625 9.1875 0.0625 9.4375 C-2.9375 9.1875 -2.9375 9.1875 -4.9375 7.1875 C-4.23164336 0.2701049 -4.23164336 0.2701049 0 0 Z " fill="#1C293C" transform="translate(193.9375,62.8125)"/>
<path d="M0 0 C7.92 0.33 15.84 0.66 24 1 C23.34 1.66 22.68 2.32 22 3 C21.85482256 5.9093558 21.81369204 8.719946 21.875 11.625 C21.88402344 12.42679688 21.89304688 13.22859375 21.90234375 14.0546875 C21.92593777 16.03658523 21.96180935 18.01832981 22 20 C21.67 20 21.34 20 21 20 C21 14.72 21 9.44 21 4 C18.834375 4.020625 16.66875 4.04125 14.4375 4.0625 C9.49944225 4.0675031 4.84659951 3.92316181 0 3 C0 2.01 0 1.02 0 0 Z " fill="#4F4952" transform="translate(156,46)"/>
<path d="M0 0 C14.85 0 29.7 0 45 0 C45 0.33 45 0.66 45 1 C33.12 1.33 21.24 1.66 9 2 C9 3.65 9 5.3 9 7 C7.68 6.67 6.36 6.34 5 6 C4.67 4.35 4.34 2.7 4 1 C2.68 0.67 1.36 0.34 0 0 Z " fill="#F69670" transform="translate(67,21)"/>
<path d="M0 0 C11.55 0 23.1 0 35 0 C35 0.33 35 0.66 35 1 C25.43 1.33 15.86 1.66 6 2 C6 3.98 6 5.96 6 8 C4.35 8.33 2.7 8.66 1 9 C0.67 8.34 0.34 7.68 0 7 C1.32 7 2.64 7 4 7 C4 6.34 4 5.68 4 5 C2.68 4.67 1.36 4.34 0 4 C0 2.68 0 1.36 0 0 Z " fill="#F5946E" transform="translate(166,21)"/>
<path d="M0 0 C5.75 -0.125 5.75 -0.125 8 1 C8 3.97 8 6.94 8 10 C7.01 9.67 6.02 9.34 5 9 C5 8.34 5 7.68 5 7 C4.01 7 3.02 7 2 7 C2 7.99 2 8.98 2 10 C1.34 10 0.68 10 0 10 C0 6.7 0 3.4 0 0 Z " fill="#929BA5" transform="translate(131,126)"/>
<path d="M0 0 C6.93 0 13.86 0 21 0 C21 4.95 21 9.9 21 15 C20.67 15 20.34 15 20 15 C20 10.71 20 6.42 20 2 C18.02 2 16.04 2 14 2 C13.34 1.67 12.68 1.34 12 1 C12 1.66 12 2.32 12 3 C8.04 3 4.08 3 0 3 C0 2.01 0 1.02 0 0 Z " fill="#031832" transform="translate(132,75)"/>
<path d="M0 0 C9.17286652 -0.63019694 9.17286652 -0.63019694 12.625 2 C13.07875 2.66 13.5325 3.32 14 4 C14.33 2.68 14.66 1.36 15 0 C15.66 0 16.32 0 17 0 C16.01 3.3 15.02 6.6 14 10 C13.34 10 12.68 10 12 10 C11.5875 8.865625 11.175 7.73125 10.75 6.5625 C9.43314602 2.90456616 9.43314602 2.90456616 6.8125 2.0625 C6.214375 2.041875 5.61625 2.02125 5 2 C5 4.64 5 7.28 5 10 C4.34 10 3.68 10 3 10 C3 7.36 3 4.72 3 2 C2.01 2 1.02 2 0 2 C0 1.34 0 0.68 0 0 Z " fill="#DFE3E6" transform="translate(154,126)"/>
<path d="M0 0 C0.99 0 1.98 0 3 0 C3 6.93 3 13.86 3 21 C2.01 21 1.02 21 0 21 C0 14.07 0 7.14 0 0 Z " fill="#041731" transform="translate(122,70)"/>
<path d="M0 0 C3.3 0 6.6 0 10 0 C10 2.31 10 4.62 10 7 C8.35 7.33 6.7 7.66 5 8 C5 7.34 5 6.68 5 6 C3.35 6.66 1.7 7.32 0 8 C0 6 0 6 2 3.875 C2.66 3.25625 3.32 2.6375 4 2 C2.68 2 1.36 2 0 2 C0 1.34 0 0.68 0 0 Z " fill="#62707F" transform="translate(52,54)"/>
<path d="M0 0 C2.16874252 0.50603992 3.99967627 0.99983813 6 2 C6.33 1.34 6.66 0.68 7 0 C7.99 0.33 8.98 0.66 10 1 C9.34 3.31 8.68 5.62 8 8 C6.35 8 4.7 8 3 8 C3 7.01 3 6.02 3 5 C1.68 4.67 0.36 4.34 -1 4 C-0.67 2.68 -0.34 1.36 0 0 Z " fill="#3D4B5D" transform="translate(183,142)"/>
<path d="M0 0 C4 2 4 2 6 5 C6.33 3.35 6.66 1.7 7 0 C7.66 0 8.32 0 9 0 C9 3.3 9 6.6 9 10 C8.01 10 7.02 10 6 10 C4.3125 8 4.3125 8 3 6 C2.67 7.32 2.34 8.64 2 10 C1.34 10 0.68 10 0 10 C0 6.7 0 3.4 0 0 Z " fill="#E2E5E8" transform="translate(96,126)"/>
<path d="M0 0 C1.99609375 0.05078125 1.99609375 0.05078125 4.4375 0.3125 C5.64212891 0.43044922 5.64212891 0.43044922 6.87109375 0.55078125 C9 1 9 1 11 3 C11 4.32 11 5.64 11 7 C10.01 7 9.02 7 8 7 C8.33 5.68 8.66 4.36 9 3 C8.01 3 7.02 3 6 3 C6 4.65 6 6.3 6 8 C5.34 8 4.68 8 4 8 C4 7.01 4 6.02 4 5 C2.35 5 0.7 5 -1 5 C-1 1 -1 1 0 0 Z " fill="#F58D66" transform="translate(53,25)"/>
<path d="M0 0 C0.66 0 1.32 0 2 0 C2.99 3.3 3.98 6.6 5 10 C-1.625 12 -1.625 12 -5 12 C-5 11.34 -5 10.68 -5 10 C-3.02 9.01 -1.04 8.02 1 7 C1 6.34 1 5.68 1 5 C-1.64 5.66 -4.28 6.32 -7 7 C-7 6.34 -7 5.68 -7 5 C-4.69 4.34 -2.38 3.68 0 3 C0 2.01 0 1.02 0 0 Z " fill="#2E3C4E" transform="translate(62,130)"/>
<path d="M0 0 C3.3 0 6.6 0 10 0 C8 4 8 4 6 5 C7.32 5.33 8.64 5.66 10 6 C10 6.66 10 7.32 10 8 C6.7 8 3.4 8 0 8 C1 5 1 5 3.0625 3.8125 C3.701875 3.544375 4.34125 3.27625 5 3 C3.35 2.67 1.7 2.34 0 2 C0 1.34 0 0.68 0 0 Z " fill="#1E3247" transform="translate(189,93)"/>
<path d="M0 0 C-2.4558914 3.6838371 -4.93007727 4.34628977 -8.9375 5.6875 C-9.88786133 6.02491211 -9.88786133 6.02491211 -10.85742188 6.36914062 C-13.70264609 7.35345058 -15.96817578 8 -19 8 C-19 7.01 -19 6.02 -19 5 C-16.21142 3.96995707 -13.41969712 2.95069003 -10.625 1.9375 C-9.8309375 1.64294922 -9.036875 1.34839844 -8.21875 1.04492188 C-7.45820312 0.77099609 -6.69765625 0.49707031 -5.9140625 0.21484375 C-5.2123291 -0.04176025 -4.5105957 -0.29836426 -3.78759766 -0.56274414 C-2 -1 -2 -1 0 0 Z " fill="#E6E8EA" transform="translate(65,187)"/>
<path d="M0 0 C0.99 0 1.98 0 3 0 C3 0.66 3 1.32 3 2 C2.01 2.33 1.02 2.66 0 3 C-0.73323796 5.01508358 -0.73323796 5.01508358 -1 7 C0.98 7 2.96 7 5 7 C5.33 6.34 5.66 5.68 6 5 C4.68 5.33 3.36 5.66 2 6 C2.66 4.68 3.32 3.36 4 2 C5.32 2.66 6.64 3.32 8 4 C7.42655063 6.86724686 7.1385485 7.8614515 5 10 C2.12987704 10.36796448 0.59225382 10.37509409 -1.875 8.8125 C-3 7 -3 7 -2.8125 4.4375 C-2 2 -2 2 0 0 Z " fill="#2A3646" transform="translate(178,151)"/>
<path d="M0 0 C3.63 0 7.26 0 11 0 C10.01 0.495 10.01 0.495 9 1 C9.14084796 2.79206547 9.28783701 4.58364917 9.4375 6.375 C9.51871094 7.37273438 9.59992188 8.37046875 9.68359375 9.3984375 C9.84965626 11.97927613 9.84965626 11.97927613 11 14 C8.03 13.505 8.03 13.505 5 13 C5 12.34 5 11.68 5 11 C5.66 11 6.32 11 7 11 C7 9.68 7 8.36 7 7 C5.35 7 3.7 7 2 7 C2 6.67 2 6.34 2 6 C3.65 6 5.3 6 7 6 C7 4.35 7 2.7 7 1 C5.02 1 3.04 1 1 1 C1 2.65 1 4.3 1 6 C0.67 6 0.34 6 0 6 C0 4.02 0 2.04 0 0 Z " fill="#EE3802" transform="translate(191,22)"/>
<path d="M0 0 C3.7952131 1.49097658 5.61042731 3.75700849 8 7 C6 8 6 8 2 8 C2.33 9.32 2.66 10.64 3 12 C1.8274869 11.04882866 0.66212985 10.08882991 -0.5 9.125 C-1.1496875 8.59132812 -1.799375 8.05765625 -2.46875 7.5078125 C-2.9740625 7.01023438 -3.479375 6.51265625 -4 6 C-4 5.34 -4 4.68 -4 4 C-1.69 4 0.62 4 3 4 C2.01 2.68 1.02 1.36 0 0 Z " fill="#3A4858" transform="translate(172,158)"/>
<path d="M0 0 C2.64 0 5.28 0 8 0 C8 0.66 8 1.32 8 2 C6.35 2 4.7 2 3 2 C3 2.66 3 3.32 3 4 C4.32 4 5.64 4 7 4 C7 4.66 7 5.32 7 6 C5.35 6 3.7 6 2 6 C2.33 6.66 2.66 7.32 3 8 C5.52733235 8.65555119 5.52733235 8.65555119 8 9 C8 9.33 8 9.66 8 10 C5.36 10 2.72 10 0 10 C0 6.7 0 3.4 0 0 Z " fill="#D6DADF" transform="translate(121,126)"/>
<path d="M0 0 C3.3 0 6.6 0 10 0 C9 3 9 3 6 5 C7.32 5.66 8.64 6.32 10 7 C6.52674819 8.1577506 3.63932552 8.06866652 0 8 C1 5 1 5 4 3 C2.68 2.67 1.36 2.34 0 2 C0 1.34 0 0.68 0 0 Z " fill="#1D3045" transform="translate(52,114)"/>
<path d="M0 0 C2.31 0 4.62 0 7 0 C6.67 0.99 6.34 1.98 6 3 C7.32 3.33 8.64 3.66 10 4 C10 4.66 10 5.32 10 6 C9.01 6.33 8.02 6.66 7 7 C6.67 7.66 6.34 8.32 6 9 C4.23537317 5.91190305 4 4.76687864 4 1 C3.34 1 2.68 1 2 1 C2 4.3 2 7.6 2 11 C1.34 11 0.68 11 0 11 C0 7.37 0 3.74 0 0 Z " fill="#F0561E" transform="translate(160,22)"/>
<path d="M0 0 C0.66 0 1.32 0 2 0 C2.33 1.32 2.66 2.64 3 4 C3.66 3.01 4.32 2.02 5 1 C5 2.65 5 4.3 5 6 C5.99 6 6.98 6 8 6 C8 4.35 8 2.7 8 1 C8.66 1 9.32 1 10 1 C9.67 3.64 9.34 6.28 9 9 C5.7 8.34 2.4 7.68 -1 7 C-0.67 4.69 -0.34 2.38 0 0 Z " fill="#2F3C4F" transform="translate(189,121)"/>
<path d="M0 0 C0 0.66 0 1.32 0 2 C-1.32 2 -2.64 2 -4 2 C-4 2.66 -4 3.32 -4 4 C-1.525 4.99 -1.525 4.99 1 6 C0.67 7.32 0.34 8.64 0 10 C-1.98 10 -3.96 10 -6 10 C-6 9.01 -6 8.02 -6 7 C-4.02 7.495 -4.02 7.495 -2 8 C-2 7.34 -2 6.68 -2 6 C-3.32 5.67 -4.64 5.34 -6 5 C-6.33 3.68 -6.66 2.36 -7 1 C-4.53721199 -0.231394 -2.7204945 -0.07159196 0 0 Z " fill="#D6DBDF" transform="translate(148,126)"/>
<path d="M0 0 C3.3 0 6.6 0 10 0 C10 0.66 10 1.32 10 2 C8.68 2 7.36 2 6 2 C6 3.32 6 4.64 6 6 C7.32 6 8.64 6 10 6 C10 6.66 10 7.32 10 8 C6.7 8 3.4 8 0 8 C0 7.34 0 6.68 0 6 C1.32 6 2.64 6 4 6 C4 4.68 4 3.36 4 2 C2.68 2 1.36 2 0 2 C0 1.34 0 0.68 0 0 Z " fill="#2F3C4D" transform="translate(52,77)"/>
<path d="M0 0 C3.3 0 6.6 0 10 0 C10 0.66 10 1.32 10 2 C9.01 2.33 8.02 2.66 7 3 C7.495 3.45375 7.99 3.9075 8.5 4.375 C10 6 10 6 10 8 C9.278125 7.62875 8.55625 7.2575 7.8125 6.875 C4.39011689 5.81025859 3.11771927 6.39660152 0 8 C0 6 0 6 1.5 4.375 C1.995 3.92125 2.49 3.4675 3 3 C2.01 2.67 1.02 2.34 0 2 C0 1.34 0 0.68 0 0 Z " fill="#223145" transform="translate(52,44)"/>
<path d="M0 0 C5.11365014 1.0681847 10.07227969 2.23107476 15 4 C15 4.66 15 5.32 15 6 C11.21180727 7.43410153 8.93478721 6.51009497 5.25 5.0625 C4.26515625 4.68222656 3.2803125 4.30195313 2.265625 3.91015625 C1.51796875 3.60980469 0.7703125 3.30945313 0 3 C0 2.01 0 1.02 0 0 Z " fill="#F8F9F9" transform="translate(200,209)"/>
<path d="M0 0 C0.66 0 1.32 0 2 0 C2 2.64 2 5.28 2 8 C3.32 7.67 4.64 7.34 6 7 C6.33 4.69 6.66 2.38 7 0 C7.66 0 8.32 0 9 0 C9.1953125 6.0546875 9.1953125 6.0546875 9 8 C7 10 7 10 3.9375 10.1875 C1 10 1 10 0 9 C-0.07179964 7.48071962 -0.08392007 5.95832518 -0.0625 4.4375 C-0.05347656 3.61121094 -0.04445313 2.78492188 -0.03515625 1.93359375 C-0.02355469 1.29550781 -0.01195313 0.65742187 0 0 Z " fill="#DADEE2" transform="translate(85,126)"/>
<path d="M0 0 C3.3 0.99 6.6 1.98 10 3 C10 3.99 10 4.98 10 6 C5.05 7.485 5.05 7.485 0 9 C0 8.34 0 7.68 0 7 C0.66 7 1.32 7 2 7 C2 5.35 2 3.7 2 2 C1.34 2 0.68 2 0 2 C0 1.34 0 0.68 0 0 Z " fill="#18293E" transform="translate(52,96)"/>
<path d="M0 0 C0.33 0 0.66 0 1 0 C1 2.97 1 5.94 1 9 C0.67 9 0.34 9 0 9 C0 7.35 0 5.7 0 4 C-0.99 4.66 -1.98 5.32 -3 6 C-3.99 6 -4.98 6 -6 6 C-6 5.34 -6 4.68 -6 4 C-6.99 4.495 -6.99 4.495 -8 5 C-7.34 6.65 -6.68 8.3 -6 10 C-7.9375 9.3125 -7.9375 9.3125 -10 8 C-10.8125 5.4375 -10.8125 5.4375 -11 3 C-10 2 -10 2 -7.71484375 1.90234375 C-6.34005859 1.91974609 -6.34005859 1.91974609 -4.9375 1.9375 C-4.01839844 1.94652344 -3.09929687 1.95554687 -2.15234375 1.96484375 C-1.44207031 1.97644531 -0.73179688 1.98804687 0 2 C0 1.34 0 0.68 0 0 Z " fill="#F1622F" transform="translate(95,23)"/>
<path d="M0 0 C0.66 0 1.32 0 2 0 C2.33 2.97 2.66 5.94 3 9 C-1 7 -1 7 -2 6 C-2 7.65 -2 9.3 -2 11 C-2.66 11 -3.32 11 -4 11 C-4.66 7.7 -5.32 4.4 -6 1 C-2 3 -2 3 0 5 C0 3.35 0 1.7 0 0 Z " fill="#1F2B3F" transform="translate(141,177)"/>
<path d="M0 0 C3.16115776 1.36983503 3.9927092 1.9890638 6 5 C3.525 4.01 3.525 4.01 1 3 C0.67 3.66 0.34 4.32 0 5 C0.99 5.33 1.98 5.66 3 6 C2.67 6.66 2.34 7.32 2 8 C-0.475 7.01 -0.475 7.01 -3 6 C-3 6.66 -3 7.32 -3 8 C-1.68 8.66 -0.36 9.32 1 10 C1 10.66 1 11.32 1 12 C-1.62187494 10.95125002 -2.79371361 10.35068687 -4.25 7.875 C-4.4975 7.25625 -4.745 6.6375 -5 6 C-3.35 4.02 -1.7 2.04 0 0 Z " fill="#263041" transform="translate(79,160)"/>
<path d="M0 0 C2.97 0 5.94 0 9 0 C9 0.66 9 1.32 9 2 C7.68 2 6.36 2 5 2 C5 3.32 5 4.64 5 6 C6.32 6 7.64 6 9 6 C9 6.66 9 7.32 9 8 C5.7 8 2.4 8 -1 8 C-1 7.34 -1 6.68 -1 6 C0.32 6 1.64 6 3 6 C3 4.68 3 3.36 3 2 C2.01 2 1.02 2 0 2 C0 1.34 0 0.68 0 0 Z " fill="#1C3046" transform="translate(190,103)"/>
<path d="M0 0 C1.65 0.33 3.3 0.66 5 1 C5.04241723 3.33294775 5.04092937 5.66702567 5 8 C4 9 4 9 0.5625 9.1875 C-3 9 -3 9 -5 7 C-4.75 4.4375 -4.75 4.4375 -4 2 C-3.34 1.67 -2.68 1.34 -2 1 C-2.33 2.98 -2.66 4.96 -3 7 C-1.35 7 0.3 7 2 7 C2 6.34 2 5.68 2 5 C1.34 5 0.68 5 0 5 C0 3.35 0 1.7 0 0 Z " fill="#263040" transform="translate(194,52)"/>
<path d="M0 0 C1.20366211 0.00483398 1.20366211 0.00483398 2.43164062 0.00976562 C3.68170898 0.02233398 3.68170898 0.02233398 4.95703125 0.03515625 C6.22450195 0.04192383 6.22450195 0.04192383 7.51757812 0.04882812 C9.6015928 0.06060222 11.68557102 0.07853735 13.76953125 0.09765625 C13.76953125 0.42765625 13.76953125 0.75765625 13.76953125 1.09765625 C9.14953125 1.42765625 4.52953125 1.75765625 -0.23046875 2.09765625 C1.08953125 2.75765625 2.40953125 3.41765625 3.76953125 4.09765625 C-1.18046875 4.42765625 -6.13046875 4.75765625 -11.23046875 5.09765625 C-7.07801621 0.94520371 -5.52112427 -0.03915691 0 0 Z " fill="#DC5B24" transform="translate(138.23046875,46.90234375)"/>
<path d="M0 0 C0.99 0.33 1.98 0.66 3 1 C3.33 2.65 3.66 4.3 4 6 C4.66 6 5.32 6 6 6 C6 4.35 6 2.7 6 1 C6.33 1 6.66 1 7 1 C7 3.97 7 6.94 7 10 C6.01 10 5.02 10 4 10 C3.34 8.35 2.68 6.7 2 5 C1.34 6.65 0.68 8.3 0 10 C-0.33 10 -0.66 10 -1 10 C-0.67 6.7 -0.34 3.4 0 0 Z " fill="#1C2D42" transform="translate(114,178)"/>
<path d="M0 0 C3.3 0 6.6 0 10 0 C10 0.66 10 1.32 10 2 C7.5 3.625 7.5 3.625 5 5 C6.65 5.33 8.3 5.66 10 6 C10 6.33 10 6.66 10 7 C6.7 7 3.4 7 0 7 C0 6.34 0 5.68 0 5 C0.99 4.34 1.98 3.68 3 3 C2.01 2.67 1.02 2.34 0 2 C0 1.34 0 0.68 0 0 Z " fill="#202A3E" transform="translate(52,87)"/>
<path d="M0 0 C1.98 0 3.96 0 6 0 C6 2.97 6 5.94 6 9 C5.67 8.34 5.34 7.68 5 7 C3.02 7.33 1.04 7.66 -1 8 C-1.33 7.01 -1.66 6.02 -2 5 C-1.34 5 -0.68 5 0 5 C0 3.35 0 1.7 0 0 Z " fill="#F8B195" transform="translate(192,23)"/>
<path d="M0 0 C2.31 0.33 4.62 0.66 7 1 C7 1.66 7 2.32 7 3 C4.03 2.505 4.03 2.505 1 2 C1 2.66 1 3.32 1 4 C2.65 4.33 4.3 4.66 6 5 C6 5.33 6 5.66 6 6 C4.02 6 2.04 6 0 6 C0.33 6.66 0.66 7.32 1 8 C3.02463255 8.65213292 3.02463255 8.65213292 5 9 C5 9.66 5 10.32 5 11 C2.69 10.67 0.38 10.34 -2 10 C-1.34 6.7 -0.68 3.4 0 0 Z " fill="#1F2E42" transform="translate(106,176)"/>
<path d="M0 0 C1.32 0.33 2.64 0.66 4 1 C4.6875 3.25 4.6875 3.25 5 6 C3.5625 8.3125 3.5625 8.3125 2 10 C-0.64 9.67 -3.28 9.34 -6 9 C-5.34 8.67 -4.68 8.34 -4 8 C-4 7.34 -4 6.68 -4 6 C-3.34 6 -2.68 6 -2 6 C-1.67 5.01 -1.34 4.02 -1 3 C-0.67 3.66 -0.34 4.32 0 5 C0.99 5 1.98 5 3 5 C2.2236068 1.9254644 2.2236068 1.9254644 0 0 Z " fill="#081F37" transform="translate(137,116)"/>
<path d="M0 0 C0 3 0 3 -1 6 C-0.01 6 0.98 6 2 6 C2.33 4.35 2.66 2.7 3 1 C4.65 1.33 6.3 1.66 8 2 C7.625 4.4375 7.625 4.4375 7 7 C6.01 7.495 6.01 7.495 5 8 C5.33 6.35 5.66 4.7 6 3 C5.34 3 4.68 3 4 3 C3.67 4.65 3.34 6.3 3 8 C1.35 7.67 -0.3 7.34 -2 7 C-2.125 4.625 -2.125 4.625 -2 2 C-1.34 1.34 -0.68 0.68 0 0 Z " fill="#1B283B" transform="translate(54,67)"/>
<path d="M0 0 C1.4540625 0.0309375 1.4540625 0.0309375 2.9375 0.0625 C3.2675 0.7225 3.5975 1.3825 3.9375 2.0625 C2.2875 2.0625 0.6375 2.0625 -1.0625 2.0625 C-1.7225 3.7125 -2.3825 5.3625 -3.0625 7.0625 C-1.4125 7.3925 0.2375 7.7225 1.9375 8.0625 C1.9375 7.4025 1.9375 6.7425 1.9375 6.0625 C1.2775 6.0625 0.6175 6.0625 -0.0625 6.0625 C-0.0625 5.4025 -0.0625 4.7425 -0.0625 4.0625 C1.2575 4.0625 2.5775 4.0625 3.9375 4.0625 C3.9375 5.7125 3.9375 7.3625 3.9375 9.0625 C1.60455225 9.10491723 -0.72952567 9.10342937 -3.0625 9.0625 C-4.0625 8.0625 -4.0625 8.0625 -4.1875 4.5625 C-4.02748906 0.08219365 -4.02748906 0.08219365 0 0 Z " fill="#192231" transform="translate(127.0625,178.9375)"/>
<path d="M0 0 C3.34252724 -0.07427838 5.8035914 -0.06546953 9 1 C9 2.32 9 3.64 9 5 C5.7 5 2.4 5 -1 5 C-0.67 3.35 -0.34 1.7 0 0 Z " fill="#949FAA" transform="translate(107,117)"/>
<path d="M0 0 C1.98 0 3.96 0 6 0 C6 1.32 6 2.64 6 4 C5.030625 4.28875 4.06125 4.5775 3.0625 4.875 C-0.10664203 5.64214682 -0.10664203 5.64214682 -1 8 C-1.99 6.68 -2.98 5.36 -4 4 C-2.68 4 -1.36 4 0 4 C0 2.68 0 1.36 0 0 Z " fill="#F1612C" transform="translate(149,23)"/>
<path d="M0 0 C2.0625 0.4375 2.0625 0.4375 4 1 C3.67 1.66 3.34 2.32 3 3 C2.34 2.67 1.68 2.34 1 2 C1.185625 2.639375 1.37125 3.27875 1.5625 3.9375 C1.706875 4.618125 1.85125 5.29875 2 6 C0.31699331 7.68300669 -1.82008727 7.22809077 -4.12890625 7.31640625 C-5.16337891 7.35830078 -6.19785156 7.40019531 -7.26367188 7.44335938 C-8.8965918 7.50233398 -8.8965918 7.50233398 -10.5625 7.5625 C-12.2012207 7.62727539 -12.2012207 7.62727539 -13.87304688 7.69335938 C-16.58189564 7.79982068 -19.29083992 7.90183516 -22 8 C-22 7.34 -22 6.68 -22 6 C-14.74 6 -7.48 6 0 6 C-0.33 4.35 -0.66 2.7 -1 1 C-0.67 0.67 -0.34 0.34 0 0 Z " fill="#F47E50" transform="translate(139,15)"/>
<path d="M0 0 C0.66 0 1.32 0 2 0 C2.66 1.65 3.32 3.3 4 5 C5.93798263 2.22739701 5.93798263 2.22739701 7 0 C7.66 0 8.32 0 9 0 C8.01 3.3 7.02 6.6 6 10 C5.01 10 4.02 10 3 10 C0 3.375 0 3.375 0 0 Z " fill="#DFE2E5" transform="translate(111,126)"/>
<path d="M0 0 C0.33 0 0.66 0 1 0 C1 3.3 1 6.6 1 10 C-1.64 9.34 -4.28 8.68 -7 8 C-7 6.68 -7 5.36 -7 4 C-5.33388095 3.957279 -3.66617115 3.95936168 -2 4 C-1.67 4.33 -1.34 4.66 -1 5 C-0.67 3.35 -0.34 1.7 0 0 Z " fill="#F5906D" transform="translate(142,23)"/>
<path d="M0 0 C2.97 0.495 2.97 0.495 6 1 C6 3.64 6 6.28 6 9 C5.67 8.34 5.34 7.68 5 7 C3.35 7 1.7 7 0 7 C-0.33 6.01 -0.66 5.02 -1 4 C0.32 3.67 1.64 3.34 3 3 C2.01 2.67 1.02 2.34 0 2 C0 1.34 0 0.68 0 0 Z " fill="#DDE1E4" transform="translate(107,178)"/>
<path d="M0 0 C2 3 2 3 2 7 C0.02 7.33 -1.96 7.66 -4 8 C-4 5 -4 5 -3 4 C-3.99 4 -4.98 4 -6 4 C-6 3.34 -6 2.68 -6 2 C-2.25 0 -2.25 0 0 0 Z " fill="#DDE1E4" transform="translate(152,175)"/>
<path d="M0 0 C2 1.8125 2 1.8125 4 4 C4 4.99 4 5.98 4 7 C2.02 7.66 0.04 8.32 -2 9 C-1.67 7.68 -1.34 6.36 -1 5 C-1.99 5 -2.98 5 -4 5 C-3 2 -3 2 0 0 Z " fill="#E4E8EA" transform="translate(158,171)"/>
<path d="M0 0 C-0.33 0.99 -0.66 1.98 -1 3 C-1.99 3 -2.98 3 -4 3 C-4.33 3.66 -4.66 4.32 -5 5 C-3.68 4.67 -2.36 4.34 -1 4 C-1.2784375 4.8971875 -1.2784375 4.8971875 -1.5625 5.8125 C-2.22093687 8.16408762 -2.22093687 8.16408762 -1 11 C-5.39158329 9.5361389 -5.87947433 7.02168662 -8 3 C-4.93882432 0.37613513 -4.26826873 0 0 0 Z " fill="#1D293A" transform="translate(166,167)"/>
<path d="M0 0 C2.31 0 4.62 0 7 0 C7 1.65 7 3.3 7 5 C4.36 5 1.72 5 -1 5 C-0.67 3.35 -0.34 1.7 0 0 Z " fill="#8B98A4" transform="translate(143,117)"/>
<path d="M0 0 C1.0528418 0.01353516 1.0528418 0.01353516 2.12695312 0.02734375 C3.85561525 0.05086296 5.58410145 0.08673287 7.3125 0.125 C7.3125 0.455 7.3125 0.785 7.3125 1.125 C4.6725 1.125 2.0325 1.125 -0.6875 1.125 C-0.6875 1.785 -0.6875 2.445 -0.6875 3.125 C1.2925 3.125 3.2725 3.125 5.3125 3.125 C5.3125 3.455 5.3125 3.785 5.3125 4.125 C-0.83984375 4.22265625 -0.83984375 4.22265625 -2.6875 4.125 C-3.0175 3.795 -3.3475 3.465 -3.6875 3.125 C-6.01567964 2.75739269 -8.3493385 2.42258419 -10.6875 2.125 C-7.00662647 -0.32891569 -4.24394412 -0.10302759 0 0 Z " fill="#FA5D1B" transform="translate(145.6875,47.875)"/>
<path d="M0 0 C0.66 0 1.32 0 2 0 C2 1.65 2 3.3 2 5 C3.65 5 5.3 5 7 5 C7.33 4.01 7.66 3.02 8 2 C7.34 2 6.68 2 6 2 C6 1.34 6 0.68 6 0 C6.99 0.33 7.98 0.66 9 1 C9.125 3.375 9.125 3.375 9 6 C7 8 7 8 4.5625 8.3125 C2 8 2 8 0.125 6.8125 C-1 5 -1 5 -0.6875 2.3125 C-0.460625 1.549375 -0.23375 0.78625 0 0 Z " fill="#1D273A" transform="translate(190,113)"/>
<path d="M0 0 C2.125 0.375 2.125 0.375 4 1 C3.67 2.65 3.34 4.3 3 6 C1.68 6.33 0.36 6.66 -1 7 C-1.625 4.625 -1.625 4.625 -2 2 C-1.34 1.34 -0.68 0.68 0 0 Z " fill="#DEE2E5" transform="translate(89,170)"/>
<path d="M0 0 C0.33 0 0.66 0 1 0 C1.18041261 3.96907752 1.07632075 6.58017758 -1 10 C-1.33 10.66 -1.66 11.32 -2 12 C-3.7074998 10.71937515 -5.37373596 9.38232443 -7 8 C-7 7.34 -7 6.68 -7 6 C-6.21625 5.938125 -5.4325 5.87625 -4.625 5.8125 C-3.75875 5.544375 -2.8925 5.27625 -2 5 C-0.62533375 2.52363988 -0.62533375 2.52363988 0 0 Z " fill="#F16435" transform="translate(77,23)"/>
<path d="M0 0 C0.66 0 1.32 0 2 0 C2 0.99 2 1.98 2 3 C3.98 2.67 5.96 2.34 8 2 C6.02 2.99 6.02 2.99 4 4 C4 4.99 4 5.98 4 7 C5.98 6.67 7.96 6.34 10 6 C7.4345406 8.5654594 5.52313332 8.54046087 2 9 C1.34 6.03 0.68 3.06 0 0 Z " fill="#1D293C" transform="translate(144,176)"/>
<path d="M0 0 C0 2.77996107 -0.21297929 5.42492567 -0.5 8.1875 C-0.5928125 9.08855469 -0.685625 9.98960938 -0.78125 10.91796875 C-0.88953125 11.94857422 -0.88953125 11.94857422 -1 13 C0.32 13.66 1.64 14.32 3 15 C-0.20395416 15 -2.09399739 14.25664978 -5 13 C-4.67 12.01 -4.34 11.02 -4 10 C-3.67 10 -3.34 10 -3 10 C-2.95101562 9.36191406 -2.90203125 8.72382813 -2.8515625 8.06640625 C-2.77679688 7.24011719 -2.70203125 6.41382813 -2.625 5.5625 C-2.55539063 4.73878906 -2.48578125 3.91507813 -2.4140625 3.06640625 C-2.27742188 2.38449219 -2.14078125 1.70257812 -2 1 C-1.34 0.67 -0.68 0.34 0 0 Z " fill="#F6A284" transform="translate(112,22)"/>
<path d="M0 0 C1.2065625 0.0309375 1.2065625 0.0309375 2.4375 0.0625 C3 2 3 2 3.4375 4.0625 C2.4375 5.0625 2.4375 5.0625 -0.125 5.125 C-1.3315625 5.0940625 -1.3315625 5.0940625 -2.5625 5.0625 C-3.125 3.125 -3.125 3.125 -3.5625 1.0625 C-2.5625 0.0625 -2.5625 0.0625 0 0 Z " fill="#E8EBED" transform="translate(194.5625,83.9375)"/>
<path d="M0 0 C1.2065625 0.0309375 1.2065625 0.0309375 2.4375 0.0625 C3 2 3 2 3.4375 4.0625 C2.4375 5.0625 2.4375 5.0625 -0.125 5.125 C-1.3315625 5.0940625 -1.3315625 5.0940625 -2.5625 5.0625 C-3.125 3.125 -3.125 3.125 -3.5625 1.0625 C-2.5625 0.0625 -2.5625 0.0625 0 0 Z " fill="#E9ECEE" transform="translate(194.5625,64.9375)"/>
<path d="M0 0 C-1.32 1.32 -2.64 2.64 -4 4 C-2.68 3.67 -1.36 3.34 0 3 C-0.33 3.99 -0.66 4.98 -1 6 C-3.97 5.505 -3.97 5.505 -7 5 C-6.67 3.35 -6.34 1.7 -6 0 C-3 -1 -3 -1 0 0 Z " fill="#E3E7E9" transform="translate(184,153)"/>
<path d="M0 0 C0.33 1.32 0.66 2.64 1 4 C3.31 4.33 5.62 4.66 8 5 C8 5.66 8 6.32 8 7 C5.36 6.67 2.72 6.34 0 6 C0 6.66 0 7.32 0 8 C-0.66 8 -1.32 8 -2 8 C-1.125 1.125 -1.125 1.125 0 0 Z " fill="#2A3A4C" transform="translate(188,129)"/>
<path d="M0 0 C2.31 0 4.62 0 7 0 C7 0.66 7 1.32 7 2 C6.34 2 5.68 2 5 2 C5 4.64 5 7.28 5 10 C4.34 10 3.68 10 3 10 C3 7.36 3 4.72 3 2 C2.01 2 1.02 2 0 2 C0 1.34 0 0.68 0 0 Z " fill="#EFF0F2" transform="translate(154,126)"/>
<path d="M0 0 C0.66 0 1.32 0 2 0 C2 2.31 2 4.62 2 7 C-1.3 7 -4.6 7 -8 7 C-8 6.34 -8 5.68 -8 5 C-5.36 5 -2.72 5 0 5 C0 3.35 0 1.7 0 0 Z " fill="#394353" transform="translate(197,73)"/>
<path d="M0 0 C0.99 0 1.98 0 3 0 C3.28875 0.61875 3.5775 1.2375 3.875 1.875 C4.93720042 4.13325765 4.93720042 4.13325765 7 6 C5.35 6 3.7 6 2 6 C1.67 7.65 1.34 9.3 1 11 C0.34 10.67 -0.32 10.34 -1 10 C-0.67 6.7 -0.34 3.4 0 0 Z " fill="#FCE8E1" transform="translate(68,23)"/>
<path d="M0 0 C2.97 0 5.94 0 9 0 C9 0.66 9 1.32 9 2 C7.68 2 6.36 2 5 2 C4.9175 2.61875 4.835 3.2375 4.75 3.875 C4 6 4 6 1.9375 7.25 C0.9784375 7.62125 0.9784375 7.62125 0 8 C0 6 0 6 2 3.875 C2.66 3.25625 3.32 2.6375 4 2 C2.68 2 1.36 2 0 2 C0 1.34 0 0.68 0 0 Z " fill="#0C2036" transform="translate(52,54)"/>
<path d="M0 0 C2.97 0 5.94 0 9 0 C9 0.66 9 1.32 9 2 C8.05125 2.061875 7.1025 2.12375 6.125 2.1875 C4.578125 2.5896875 4.578125 2.5896875 3 3 C1.54708727 5.46255685 1.54708727 5.46255685 1 8 C0.67 8 0.34 8 0 8 C0 5.36 0 2.72 0 0 Z " fill="#FCECE6" transform="translate(131,23)"/>
<path d="M0 0 C1.67542976 0.28604898 3.34385343 0.61781233 5 1 C4.67 1.66 4.34 2.32 4 3 C3.01 3 2.02 3 1 3 C1 3.66 1 4.32 1 5 C1.66 5 2.32 5 3 5 C3 5.66 3 6.32 3 7 C1.35 6.67 -0.3 6.34 -2 6 C-1.125 1.125 -1.125 1.125 0 0 Z " fill="#E2E5E8" transform="translate(126,180)"/>
<path d="M0 0 C1.98 0.66 3.96 1.32 6 2 C5.67 2.66 5.34 3.32 5 4 C3.68 3.34 2.36 2.68 1 2 C1 2.99 1 3.98 1 5 C1.99 5.33 2.98 5.66 4 6 C3.360625 6.12375 2.72125 6.2475 2.0625 6.375 C1.0415625 6.684375 1.0415625 6.684375 0 7 C-0.33 7.66 -0.66 8.32 -1 9 C-1.66 9 -2.32 9 -3 9 C-2.01 6.03 -1.02 3.06 0 0 Z " fill="#101E31" transform="translate(96,172)"/>
<path d="M0 0 C2.475 0.495 2.475 0.495 5 1 C5.33 3.31 5.66 5.62 6 8 C4 4.25 4 4.25 4 2 C3.34 2 2.68 2 2 2 C2 3.98 2 5.96 2 8 C1.34 8 0.68 8 0 8 C0 5.36 0 2.72 0 0 Z " fill="#061C36" transform="translate(159,128)"/>
<path d="M0 0 C4.29 0 8.58 0 13 0 C13 0.66 13 1.32 13 2 C6.565 2.495 6.565 2.495 0 3 C0 2.01 0 1.02 0 0 Z " fill="#041832" transform="translate(132,83)"/>
<path d="M0 0 C0.66 0.33 1.32 0.66 2 1 C1.01 2.485 1.01 2.485 0 4 C0.598125 3.649375 1.19625 3.29875 1.8125 2.9375 C4 2 4 2 7 3 C6.67 4.65 6.34 6.3 6 8 C5.34 8 4.68 8 4 8 C4 7.01 4 6.02 4 5 C2.35 5 0.7 5 -1 5 C-1 1 -1 1 0 0 Z " fill="#F0571D" transform="translate(53,25)"/>
<path d="M0 0 C0.66 0 1.32 0 2 0 C2 1.65 2 3.3 2 5 C3.32 5 4.64 5 6 5 C6.66 6.32 7.32 7.64 8 9 C7.01 8.67 6.02 8.34 5 8 C5 7.34 5 6.68 5 6 C4.01 6 3.02 6 2 6 C2 6.99 2 7.98 2 9 C1.34 9 0.68 9 0 9 C0 6.03 0 3.06 0 0 Z " fill="#F9FAFA" transform="translate(131,127)"/>
<path d="M0 0 C2.31 0.33 4.62 0.66 7 1 C7 2.32 7 3.64 7 5 C6.38125 4.814375 5.7625 4.62875 5.125 4.4375 C2.95839822 3.76313824 2.95839822 3.76313824 1 5 C0.67 3.35 0.34 1.7 0 0 Z " fill="#909BA5" transform="translate(133,117)"/>
<path d="M0 0 C1.98 0.99 3.96 1.98 6 3 C4 5 4 5 0.375 5.125 C-0.73875 5.08375 -1.8525 5.0425 -3 5 C-3 4.01 -3 3.02 -3 2 C-2.01 1.34 -1.02 0.68 0 0 Z " fill="#F1F2F4" transform="translate(57,49)"/>
<path d="M0 0 C3.7952131 1.49097658 5.61042731 3.75700849 8 7 C6 8 6 8 2.875 7.0625 C1.92625 6.711875 0.9775 6.36125 0 6 C0.99 5.34 1.98 4.68 3 4 C2.01 2.68 1.02 1.36 0 0 Z " fill="#101B30" transform="translate(172,158)"/>
<path d="M0 0 C2.475 0.495 2.475 0.495 5 1 C5 2.65 5 4.3 5 6 C3.68 5.67 2.36 5.34 1 5 C0.67 3.35 0.34 1.7 0 0 Z " fill="#F58B65" transform="translate(71,22)"/>
<path d="M0 0 C1.32 0 2.64 0 4 0 C4 1.32 4 2.64 4 4 C3.01 4.495 3.01 4.495 2 5 C1.34444881 7.52733235 1.34444881 7.52733235 1 10 C0.67 10 0.34 10 0 10 C0 6.7 0 3.4 0 0 Z " fill="#FBD4C5" transform="translate(97,23)"/>
<path d="M0 0 C0.66 0 1.32 0 2 0 C2 1.98 2 3.96 2 6 C0.35 6.33 -1.3 6.66 -3 7 C-3.33 6.34 -3.66 5.68 -4 5 C-2.68 5 -1.36 5 0 5 C0 4.34 0 3.68 0 3 C-0.66 2.67 -1.32 2.34 -2 2 C-1.34 1.34 -0.68 0.68 0 0 Z " fill="#FCE8DF" transform="translate(170,23)"/>
<path d="M0 0 C0.33 1.32 0.66 2.64 1 4 C-0.98 4 -2.96 4 -5 4 C-5.33 4.99 -5.66 5.98 -6 7 C-6.5625 5.0625 -6.5625 5.0625 -7 3 C-6 2 -6 2 -2.9375 1.9375 C-1.4834375 1.9684375 -1.4834375 1.9684375 0 2 C0 1.34 0 0.68 0 0 Z " fill="#F15F2E" transform="translate(140,23)"/>
<path d="M0 0 C0.33 0 0.66 0 1 0 C1.06058594 0.77085938 1.12117187 1.54171875 1.18359375 2.3359375 C1.26738281 3.33882812 1.35117188 4.34171875 1.4375 5.375 C1.51871094 6.37273438 1.59992188 7.37046875 1.68359375 8.3984375 C1.84965626 10.97927613 1.84965626 10.97927613 3 13 C0.03 12.505 0.03 12.505 -3 12 C-3 11.34 -3 10.68 -3 10 C-2.34 9.67 -1.68 9.34 -1 9 C-0.53348793 6.87423218 -0.53348793 6.87423218 -0.375 4.4375 C-0.30023438 3.61121094 -0.22546875 2.78492188 -0.1484375 1.93359375 C-0.09945312 1.29550781 -0.05046875 0.65742188 0 0 Z " fill="#F37D54" transform="translate(199,23)"/>
<path d="M0 0 C3.63 0 7.26 0 11 0 C11 0.66 11 1.32 11 2 C6.70700357 3.26264601 4.12168689 2.62950412 0 1 C0 0.67 0 0.34 0 0 Z " fill="#FCEAE2" transform="translate(84,23)"/>
<path d="M0 0 C0.99 0.66 1.98 1.32 3 2 C3 2.66 3 3.32 3 4 C4.32 4.33 5.64 4.66 7 5 C5.1875 5.625 5.1875 5.625 3 6 C2.01 5.34 1.02 4.68 0 4 C-0.66 4 -1.32 4 -2 4 C-1.34 2.68 -0.68 1.36 0 0 Z " fill="#74808C" transform="translate(163,168)"/>
<path d="M0 0 C2.60608273 2.5162178 4.89381685 5.05134359 7 8 C4.69 7.67 2.38 7.34 0 7 C0 4.69 0 2.38 0 0 Z " fill="#0E213B" transform="translate(98,130)"/>
<path d="M0 0 C0.66 0 1.32 0 2 0 C1.67 1.98 1.34 3.96 1 6 C1.99 5.67 2.98 5.34 4 5 C4 5.99 4 6.98 4 8 C0.125 7.125 0.125 7.125 -1 6 C-1.125 3.5 -1.125 3.5 -1 1 C-0.67 0.67 -0.34 0.34 0 0 Z " fill="#273346" transform="translate(54,123)"/>
<path d="M0 0 C1.32 0 2.64 0 4 0 C4 1.65 4 3.3 4 5 C2.68 5 1.36 5 0 5 C0 3.35 0 1.7 0 0 Z " fill="#FCE9E2" transform="translate(104,23)"/>
<path d="M0 0 C1.65 0 3.3 0 5 0 C5 1.32 5 2.64 5 4 C3.35 4 1.7 4 0 4 C0 2.68 0 1.36 0 0 Z " fill="#FCE4DA" transform="translate(150,23)"/>
<path d="M0 0 C1.65 0 3.3 0 5 0 C5 1.32 5 2.64 5 4 C3.35 4 1.7 4 0 4 C0 2.68 0 1.36 0 0 Z " fill="#FCE5DC" transform="translate(124,23)"/>
<path d="M0 0 C0.66 0 1.32 0 2 0 C7 5.47619048 7 5.47619048 7 8 C3.64379729 6.61122646 1.92701272 5.08322035 0 2 C0 1.34 0 0.68 0 0 Z " fill="#212C3B" transform="translate(166,164)"/>
<path d="M0 0 C2.97 0.33 5.94 0.66 9 1 C9 1.66 9 2.32 9 3 C5.71303767 3.79953138 4.28976808 4.09658936 1 3 C0.67 2.01 0.34 1.02 0 0 Z " fill="#DFE2E5" transform="translate(200,194)"/>
<path d="M0 0 C1.32 0 2.64 0 4 0 C4 1.65 4 3.3 4 5 C2.02 5 0.04 5 -2 5 C-0.68 4.67 0.64 4.34 2 4 C2 3.34 2 2.68 2 2 C1.34 2 0.68 2 0 2 C0 1.34 0 0.68 0 0 Z " fill="#1A293A" transform="translate(127,183)"/>
<path d="M0 0 C2.125 0.375 2.125 0.375 4 1 C3.01 1 2.02 1 1 1 C0.34 2.98 -0.32 4.96 -1 7 C-1.66 7 -2.32 7 -3 7 C-2.25 2.25 -2.25 2.25 0 0 Z " fill="#364253" transform="translate(88,168)"/>
<path d="M0 0 C0.99 0 1.98 0 3 0 C3 2.31 3 4.62 3 7 C2.01 7 1.02 7 0 7 C-1.33332095 4.3333581 -0.67102033 2.83319697 0 0 Z " fill="#F37649" transform="translate(101,23)"/>
<path d="M0 0 C3.37462715 0.54723683 5.08235 1.0549 8 3 C5.21176345 4.0326802 4.1322726 4.04509293 1.25 3.0625 C0.5075 2.711875 -0.235 2.36125 -1 2 C-0.67 1.34 -0.34 0.68 0 0 Z " fill="#EBEDEE" transform="translate(183,187)"/>
<path d="M0 0 C0.33 0 0.66 0 1 0 C1 2.97 1 5.94 1 9 C0.01 9 -0.98 9 -2 9 C-2 7.68 -2 6.36 -2 5 C-1.34 5 -0.68 5 0 5 C0 3.35 0 1.7 0 0 Z " fill="#182336" transform="translate(120,179)"/>
<path d="M0 0 C0.66 0.33 1.32 0.66 2 1 C1.67 2.32 1.34 3.64 1 5 C-0.66666667 5 -2.33333333 5 -4 5 C-3 2 -3 2 0 0 Z " fill="#DDE2E5" transform="translate(158,171)"/>
<path d="M0 0 C1.98 0 3.96 0 6 0 C6 0.99 6 1.98 6 3 C2.25 4.125 2.25 4.125 0 3 C0 2.01 0 1.02 0 0 Z " fill="#566473" transform="translate(56,99)"/>
</svg>
